# Blender 5.0.1
# www.blender.org
mtllib Barrier.mtl
o model_6
v -7.000000 -6.583333 1.500000
v -7.000000 -1.583333 1.500000
v -7.000000 -6.583333 -1.500000
v -7.000000 -1.583333 0.500000
v -7.000000 -1.583333 -0.500000
v -7.000000 0.416667 0.500000
v -7.000000 0.416666 -0.500000
v -6.000000 -0.583333 0.500000
v -6.000000 -1.583333 0.500000
v -6.000000 -0.583333 1.500000
v -6.000000 -1.583333 1.500000
v -2.000000 3.416667 -1.500000
v -2.000000 2.416667 -1.500000
v -2.000000 3.416667 -0.500000
v -2.000000 2.416667 -0.500000
v 3.000000 1.416667 0.500000
v 4.000000 1.416667 0.500000
v 3.000000 2.416667 0.500000
v 4.000000 2.416667 0.500000
v 2.000000 3.416667 0.500000
v 4.000000 3.416667 0.500000
v 5.000000 0.416667 0.500000
v 5.000000 1.416667 0.500000
v 5.000000 2.416667 0.500000
v 6.000000 -0.583333 0.500000
v 6.000000 0.416667 0.500000
v 6.000000 1.416667 0.500000
v 7.000000 -1.583333 0.500000
v 6.000000 -1.583333 0.500000
v -2.000000 2.416667 -1.500000
v -3.000000 2.416667 -1.500000
v -2.000000 2.416667 -0.500000
v -3.000000 2.416667 -0.500000
v -5.000000 2.416667 0.500000
v -4.000000 2.416667 0.500000
v -5.000000 2.416667 -0.500000
v -4.000000 2.416667 -0.500000
v 2.000000 2.416667 1.500000
v 3.000000 2.416667 1.500000
v 2.000000 2.416667 0.500000
v 3.000000 2.416667 0.500000
v 4.000000 1.416666 -1.500000
v 3.000000 1.416666 -1.500000
v 4.000000 1.416667 -0.500000
v 3.000000 1.416667 -0.500000
v 2.000000 2.416667 -0.500000
v 3.000000 2.416667 -0.500000
v 2.000000 2.416667 -1.500000
v 3.000000 2.416667 -1.500000
v -2.000000 3.416667 1.500000
v 2.000000 3.416667 1.500000
v -2.000000 3.416667 0.500000
v 2.000000 3.416667 0.500000
v -4.000000 3.416667 -0.500000
v 4.000000 3.416667 0.500000
v -2.000000 3.416667 -0.500000
v 2.000000 3.416667 -0.500000
v -2.000000 3.416667 -1.500000
v 2.000000 3.416667 -1.500000
v 6.000000 -1.583333 1.500000
v 6.000000 -1.583333 0.500000
v 6.000000 -0.583333 1.500000
v 6.000000 -0.583333 0.500000
v -6.000000 1.416667 0.500000
v -5.000000 1.416667 0.500000
v -6.000000 1.416667 -0.500000
v -5.000000 1.416667 -0.500000
v 4.000000 0.416666 -0.500000
v 5.000000 0.416666 -0.500000
v 4.000000 0.416666 -1.500000
v 5.000000 0.416666 -1.500000
v 6.000000 0.416667 0.500000
v 7.000000 0.416667 0.500000
v 6.000000 0.416666 -0.500000
v 7.000000 0.416666 -0.500000
v 4.000000 0.416667 1.500000
v 5.000000 0.416667 1.500000
v 4.000000 0.416667 0.500000
v 5.000000 0.416667 0.500000
v 5.000000 2.416667 -0.500000
v 4.000000 2.416667 -0.500000
v 5.000000 2.416667 0.500000
v 4.000000 2.416667 0.500000
v 1.000000 -2.583333 1.500000
v 1.000000 -1.583333 1.500000
v 1.000000 -2.583333 -1.500000
v 1.000000 -1.583334 -1.500000
v 5.000000 -0.583333 1.500000
v 6.000000 -0.583333 1.500000
v 5.000000 -0.583333 0.500000
v 6.000000 -0.583333 0.500000
v -3.000000 1.416666 -1.500000
v -4.000000 1.416666 -1.500000
v -3.000000 1.416667 -0.500000
v -4.000000 1.416667 -0.500000
v 6.000000 -1.583333 -0.500000
v 7.000000 -1.583333 -0.500000
v 6.000000 -1.583334 -1.500000
v 7.000000 -1.583334 -1.500000
v -7.000000 -1.583333 -0.500000
v -6.000000 -1.583333 -0.500000
v -7.000000 -1.583334 -1.500000
v -6.000000 -1.583334 -1.500000
v 1.000000 -1.583334 -1.500000
v 1.000000 -1.583333 1.500000
v -1.000000 -1.583334 -1.500000
v -1.000000 -1.583333 1.500000
v 3.000000 -2.583333 -1.500000
v 3.000000 -2.583333 1.500000
v 1.000000 -2.583333 -1.500000
v 1.000000 -2.583333 1.500000
v -3.000000 -2.583333 1.500000
v -3.000000 -2.583333 -1.500000
v -1.000000 -2.583333 1.500000
v -1.000000 -2.583333 -1.500000
v 3.000000 -3.583333 1.500000
v 3.000000 -3.583333 -1.500000
v 4.000000 -3.583333 1.500000
v 4.000000 -3.583333 -1.500000
v -5.000000 0.416667 1.500000
v -4.000000 0.416667 1.500000
v -5.000000 0.416667 0.500000
v -4.000000 0.416667 0.500000
v -3.000000 2.416667 1.500000
v -2.000000 2.416667 1.500000
v -3.000000 2.416667 0.500000
v -2.000000 2.416667 0.500000
v 7.000000 -6.583333 -1.500000
v 7.000000 -6.583333 1.500000
v 4.000000 -6.583333 -1.500000
v 4.000000 -6.583333 1.500000
v 6.000000 -0.583334 -1.500000
v 6.000000 -0.583334 -0.500000
v 6.000000 -1.583334 -1.500000
v 6.000000 -1.583333 -0.500000
v 5.000000 1.416667 0.500000
v 6.000000 1.416667 0.500000
v 5.000000 1.416667 -0.500000
v 6.000000 1.416667 -0.500000
v -5.000000 1.416667 0.500000
v -5.000000 2.416667 0.500000
v -5.000000 1.416667 -0.500000
v -5.000000 2.416667 -0.500000
v 6.000000 -0.583334 -1.500000
v 6.000000 -1.583334 -1.500000
v 5.000000 -0.583334 -1.500000
v 4.000000 -6.583333 -1.500000
v 4.000000 -3.583333 -1.500000
v 7.000000 -6.583333 -1.500000
v 7.000000 -1.583334 -1.500000
v 6.000000 1.416667 -0.500000
v 6.000000 1.416667 0.500000
v 6.000000 0.416666 -0.500000
v 6.000000 0.416667 0.500000
v -3.000000 1.416667 0.500000
v -4.000000 1.416667 0.500000
v -3.000000 1.416667 1.500000
v -4.000000 1.416667 1.500000
v 3.000000 -3.583333 1.500000
v 3.000000 -2.583333 1.500000
v 3.000000 -3.583333 -1.500000
v 3.000000 -2.583333 -1.500000
v 7.000000 -6.583333 1.500000
v 7.000000 -6.583333 -1.500000
v 7.000000 -1.583333 1.500000
v 7.000000 -1.583333 0.500000
v 7.000000 -1.583333 -0.500000
v 7.000000 -1.583334 -1.500000
v 7.000000 0.416667 0.500000
v 7.000000 0.416666 -0.500000
v -7.000000 -1.583333 -0.500000
v -7.000000 0.416666 -0.500000
v -6.000000 -1.583333 -0.500000
v -6.000000 -0.583334 -0.500000
v -6.000000 0.416666 -0.500000
v -5.000000 -0.583334 -0.500000
v -6.000000 1.416667 -0.500000
v -5.000000 0.416666 -0.500000
v -5.000000 1.416667 -0.500000
v -4.000000 0.416666 -0.500000
v -5.000000 2.416667 -0.500000
v -4.000000 1.416667 -0.500000
v -4.000000 2.416667 -0.500000
v -3.000000 1.416667 -0.500000
v -4.000000 3.416667 -0.500000
v -3.000000 2.416667 -0.500000
v -2.000000 2.416667 -0.500000
v -2.000000 3.416667 -0.500000
v 3.000000 1.416667 1.500000
v 4.000000 1.416667 1.500000
v 3.000000 1.416667 0.500000
v 4.000000 1.416667 0.500000
v 4.000000 -6.583333 1.500000
v 4.000000 -3.583333 1.500000
v 4.000000 -6.583333 -1.500000
v 4.000000 -3.583333 -1.500000
v -6.000000 -0.583334 -1.500000
v -5.000000 -0.583334 -1.500000
v -6.000000 -1.583334 -1.500000
v -4.000000 -6.583333 -1.500000
v -7.000000 -6.583333 -1.500000
v -5.000000 0.416666 -1.500000
v -4.000000 -3.583333 -1.500000
v -4.000000 0.416666 -1.500000
v -3.000000 -3.583333 -1.500000
v -4.000000 1.416666 -1.500000
v -3.000000 -2.583333 -1.500000
v -3.000000 1.416666 -1.500000
v -2.000000 2.416667 -1.500000
v -1.000000 -2.583333 -1.500000
v -2.000000 3.416667 -1.500000
v -1.000000 -1.583334 -1.500000
v 1.000000 -1.583334 -1.500000
v 2.000000 2.416667 -1.500000
v 2.000000 3.416667 -1.500000
v 1.000000 -2.583333 -1.500000
v 3.000000 -2.583333 -1.500000
v 3.000000 1.416666 -1.500000
v 3.000000 -3.583333 -1.500000
v 4.000000 0.416666 -1.500000
v -7.000000 -1.583333 1.500000
v -7.000000 -6.583333 1.500000
v -6.000000 -1.583333 1.500000
v -4.000000 -6.583333 1.500000
v -5.000000 -0.583333 1.500000
v -5.000000 0.416667 1.500000
v -4.000000 -3.583333 1.500000
v -4.000000 0.416667 1.500000
v -3.000000 -3.583333 1.500000
v -4.000000 1.416667 1.500000
v -3.000000 -2.583333 1.500000
v -3.000000 1.416667 1.500000
v -2.000000 2.416667 1.500000
v -1.000000 -2.583333 1.500000
v -2.000000 3.416667 1.500000
v -1.000000 -1.583333 1.500000
v 1.000000 -1.583333 1.500000
v 2.000000 2.416667 1.500000
v 1.000000 -2.583333 1.500000
v 3.000000 -2.583333 1.500000
v 3.000000 1.416667 1.500000
v 4.000000 -3.583333 1.500000
v 4.000000 0.416667 1.500000
v 5.000000 -0.583333 1.500000
v 5.000000 0.416667 1.500000
v 4.000000 -6.583333 1.500000
v 6.000000 -1.583333 1.500000
v 6.000000 -0.583333 1.500000
v 7.000000 -6.583333 1.500000
v 7.000000 -1.583333 1.500000
v 2.000000 2.416667 -0.500000
v 2.000000 3.416667 -0.500000
v 3.000000 2.416667 -0.500000
v 4.000000 2.416667 -0.500000
v 4.000000 1.416667 -0.500000
v 5.000000 0.416666 -0.500000
v 4.000000 0.416666 -0.500000
v 5.000000 1.416667 -0.500000
v 6.000000 -0.583334 -0.500000
v 5.000000 -0.583334 -0.500000
v 6.000000 0.416666 -0.500000
v 7.000000 -1.583333 -0.500000
v 6.000000 -1.583333 -0.500000
v -3.000000 -3.583333 -1.500000
v -3.000000 -3.583333 1.500000
v -4.000000 -3.583333 -1.500000
v -4.000000 -3.583333 1.500000
v -4.000000 0.416666 -0.500000
v -4.000000 1.416667 -0.500000
v -4.000000 0.416666 -1.500000
v -4.000000 1.416666 -1.500000
v -3.000000 -3.583333 1.500000
v -3.000000 -3.583333 -1.500000
v -3.000000 -2.583333 1.500000
v -3.000000 -2.583333 -1.500000
v -4.000000 -6.583333 1.500000
v -4.000000 -6.583333 -1.500000
v -4.000000 -3.583333 1.500000
v -4.000000 -3.583333 -1.500000
v -5.000000 -0.583333 0.500000
v -6.000000 -0.583333 0.500000
v -5.000000 -0.583333 1.500000
v -6.000000 -0.583333 1.500000
v -6.000000 0.416666 -0.500000
v -7.000000 0.416666 -0.500000
v -6.000000 0.416667 0.500000
v -7.000000 0.416667 0.500000
v 2.000000 3.416667 0.500000
v 2.000000 3.416667 1.500000
v 2.000000 2.416667 0.500000
v 2.000000 2.416667 1.500000
v 3.000000 1.416667 -0.500000
v 3.000000 1.416666 -1.500000
v 3.000000 2.416667 -0.500000
v 3.000000 2.416667 -1.500000
v 5.000000 0.416666 -1.500000
v 5.000000 0.416666 -0.500000
v 5.000000 -0.583334 -1.500000
v 5.000000 -0.583334 -0.500000
v 5.000000 2.416667 -0.500000
v 5.000000 2.416667 0.500000
v 5.000000 1.416667 -0.500000
v 5.000000 1.416667 0.500000
v 5.000000 0.416667 0.500000
v 5.000000 0.416667 1.500000
v 5.000000 -0.583333 0.500000
v 5.000000 -0.583333 1.500000
v -2.000000 3.416667 0.500000
v -2.000000 2.416667 0.500000
v -2.000000 3.416667 1.500000
v -2.000000 2.416667 1.500000
v -5.000000 0.416666 -0.500000
v -4.000000 0.416666 -0.500000
v -5.000000 0.416666 -1.500000
v -4.000000 0.416666 -1.500000
v -6.000000 -0.583334 -0.500000
v -5.000000 -0.583334 -0.500000
v -6.000000 -0.583334 -1.500000
v -5.000000 -0.583334 -1.500000
v -6.000000 -1.583333 0.500000
v -7.000000 -1.583333 0.500000
v -6.000000 -1.583333 1.500000
v -7.000000 -1.583333 1.500000
v -4.000000 3.416667 -0.500000
v -4.000000 2.416667 -0.500000
v -4.000000 3.416667 0.500000
v -4.000000 2.416667 0.500000
v -3.000000 2.416667 0.500000
v -3.000000 1.416667 0.500000
v -3.000000 2.416667 1.500000
v -3.000000 1.416667 1.500000
v 3.000000 1.416667 1.500000
v 3.000000 1.416667 0.500000
v 3.000000 2.416667 1.500000
v 3.000000 2.416667 0.500000
v 2.000000 2.416667 -0.500000
v 2.000000 2.416667 -1.500000
v 2.000000 3.416667 -0.500000
v 2.000000 3.416667 -1.500000
v -4.000000 0.416667 1.500000
v -4.000000 1.416667 1.500000
v -4.000000 0.416667 0.500000
v -4.000000 1.416667 0.500000
v -6.000000 -0.583334 -1.500000
v -6.000000 -1.583334 -1.500000
v -6.000000 -0.583334 -0.500000
v -6.000000 -1.583333 -0.500000
v -7.000000 -1.583333 0.500000
v -6.000000 -1.583333 0.500000
v -7.000000 0.416667 0.500000
v -6.000000 -0.583333 0.500000
v -6.000000 0.416667 0.500000
v -5.000000 -0.583333 0.500000
v -6.000000 1.416667 0.500000
v -5.000000 0.416667 0.500000
v -5.000000 1.416667 0.500000
v -4.000000 0.416667 0.500000
v -5.000000 2.416667 0.500000
v -4.000000 1.416667 0.500000
v -4.000000 2.416667 0.500000
v -3.000000 1.416667 0.500000
v -4.000000 3.416667 0.500000
v -3.000000 2.416667 0.500000
v -2.000000 2.416667 0.500000
v -3.000000 2.416667 -1.500000
v -3.000000 1.416666 -1.500000
v -3.000000 2.416667 -0.500000
v -3.000000 1.416667 -0.500000
v 6.000000 -0.583334 -1.500000
v 5.000000 -0.583334 -1.500000
v 6.000000 -0.583334 -0.500000
v 5.000000 -0.583334 -0.500000
v 4.000000 1.416667 0.500000
v 4.000000 1.416667 1.500000
v 4.000000 0.416667 0.500000
v 4.000000 0.416667 1.500000
v 4.000000 2.416667 0.500000
v 4.000000 2.416667 -0.500000
v 4.000000 3.416667 0.500000
v 4.000000 3.416667 -0.500000
v -6.000000 1.416667 -0.500000
v -6.000000 0.416666 -0.500000
v -6.000000 1.416667 0.500000
v -6.000000 0.416667 0.500000
v -5.000000 -0.583333 1.500000
v -5.000000 0.416667 1.500000
v -5.000000 -0.583333 0.500000
v -5.000000 0.416667 0.500000
v 6.000000 -1.583333 1.500000
v 7.000000 -1.583333 1.500000
v 6.000000 -1.583333 0.500000
v 7.000000 -1.583333 0.500000
v -4.000000 -6.583333 -1.500000
v -4.000000 -6.583333 1.500000
v -7.000000 -6.583333 -1.500000
v -7.000000 -6.583333 1.500000
v -5.000000 -0.583334 -0.500000
v -5.000000 0.416666 -0.500000
v -5.000000 -0.583334 -1.500000
v -5.000000 0.416666 -1.500000
v 4.000000 1.416666 -1.500000
v 4.000000 1.416667 -0.500000
v 4.000000 0.416666 -1.500000
v 4.000000 0.416666 -0.500000
v -1.000000 -1.583334 -1.500000
v -1.000000 -1.583333 1.500000
v -1.000000 -2.583333 -1.500000
v -1.000000 -2.583333 1.500000
v -7.000000 -1.583334 -1.500000
v -6.000000 -0.583333 1.500000
v -3.000000 2.416667 1.500000
v 2.000000 3.416667 1.500000
v 3.000000 2.416667 1.500000
v 3.000000 -3.583333 1.500000
v 4.000000 1.416667 1.500000
v -2.000000 3.416667 0.500000
v 2.000000 2.416667 0.500000
v 4.000000 0.416667 0.500000
v 5.000000 -0.583333 0.500000
v 7.000000 0.416667 0.500000
v 3.000000 1.416667 -0.500000
v 4.000000 3.416667 -0.500000
v 5.000000 2.416667 -0.500000
v 6.000000 1.416667 -0.500000
v 7.000000 0.416666 -0.500000
v -7.000000 -1.583334 -1.500000
v -3.000000 2.416667 -1.500000
v 3.000000 2.416667 -1.500000
v 4.000000 1.416666 -1.500000
v 5.000000 0.416666 -1.500000
v -4.000000 3.416667 0.500000
v 4.000000 3.416667 -0.500000
vn -1.0000 -0.0000 0.0022
vn -0.0000 1.0000 0.0022
vn -0.0000 -0.0000 -1.0000
vn -0.0000 -0.0000 1.0000
vn 1.0000 -0.0000 0.0022
vn -0.0000 -1.0000 0.0022
s 1
f 1//1 2//1 3//1
f 2//1 4//1 3//1
f 3//1 4//1 5//1
f 4//1 6//1 5//1
f 5//1 6//1 7//1
f 57//2 55//2 432//2
f 431//2 52//2 54//2
f 146//3 220//3 430//3
f 220//3 218//3 429//3
f 218//3 214//3 428//3
f 8//1 9//1 10//1
f 9//1 11//1 10//1
f 208//3 427//3 209//3
f 201//3 426//3 199//3
f 262//3 261//3 425//3
f 261//3 258//3 424//3
f 12//1 13//1 14//1
f 13//1 15//1 14//1
f 258//3 254//3 423//3
f 254//3 252//3 422//3
f 421//3 253//3 255//3
f 420//4 26//4 28//4
f 16//4 17//4 18//4
f 17//4 19//4 18//4
f 18//4 19//4 20//4
f 19//4 21//4 20//4
f 25//4 22//4 419//4
f 22//4 17//4 418//4
f 18//4 20//4 417//4
f 416//4 362//4 364//4
f 17//4 22//4 19//4
f 22//4 23//4 19//4
f 19//4 23//4 24//4
f 415//4 241//4 243//4
f 242//4 240//4 414//4
f 413//4 238//4 241//4
f 412//4 235//4 238//4
f 233//4 411//4 232//4
f 22//4 25//4 23//4
f 25//4 26//4 23//4
f 23//4 26//4 27//4
f 225//4 410//4 223//4
f 409//1 3//1 5//1
f 406//5 408//5 407//5
f 405//5 406//5 407//5
f 402//5 404//5 403//5
f 26//4 25//4 28//4
f 25//4 29//4 28//4
f 401//5 402//5 403//5
f 398//1 400//1 399//1
f 397//1 398//1 399//1
f 394//6 396//6 395//6
f 30//2 31//2 32//2
f 31//2 33//2 32//2
f 393//6 394//6 395//6
f 390//2 392//2 391//2
f 389//2 390//2 391//2
f 386//1 388//1 387//1
f 34//2 35//2 36//2
f 35//2 37//2 36//2
f 385//1 386//1 387//1
f 382//1 384//1 383//1
f 381//1 382//1 383//1
f 378//5 380//5 379//5
f 38//2 39//2 40//2
f 39//2 41//2 40//2
f 377//5 378//5 379//5
f 374//5 376//5 375//5
f 373//5 374//5 375//5
f 370//2 372//2 371//2
f 42//2 43//2 44//2
f 43//2 45//2 44//2
f 369//2 370//2 371//2
f 366//1 368//1 367//1
f 365//1 366//1 367//1
f 362//4 363//4 364//4
f 46//2 47//2 48//2
f 47//2 49//2 48//2
f 361//4 363//4 362//4
f 360//4 361//4 362//4
f 359//4 361//4 360//4
f 358//4 359//4 360//4
f 50//2 51//2 52//2
f 51//2 53//2 52//2
f 52//2 53//2 54//2
f 53//2 55//2 54//2
f 54//2 55//2 56//2
f 55//2 57//2 56//2
f 56//2 57//2 58//2
f 57//2 59//2 58//2
f 357//4 359//4 358//4
f 356//4 357//4 358//4
f 355//4 357//4 356//4
f 354//4 355//4 356//4
f 60//5 61//5 62//5
f 61//5 63//5 62//5
f 353//4 355//4 354//4
f 352//4 353//4 354//4
f 351//4 353//4 352//4
f 350//4 351//4 352//4
f 64//2 65//2 66//2
f 65//2 67//2 66//2
f 349//4 351//4 350//4
f 348//4 349//4 350//4
f 345//1 347//1 346//1
f 344//1 345//1 346//1
f 68//2 69//2 70//2
f 69//2 71//2 70//2
f 341//1 343//1 342//1
f 340//1 341//1 342//1
f 337//5 339//5 338//5
f 336//5 337//5 338//5
f 72//2 73//2 74//2
f 73//2 75//2 74//2
f 333//5 335//5 334//5
f 332//5 333//5 334//5
f 329//1 331//1 330//1
f 328//1 329//1 330//1
f 76//2 77//2 78//2
f 77//2 79//2 78//2
f 325//1 327//1 326//1
f 324//1 325//1 326//1
f 321//2 323//2 322//2
f 320//2 321//2 322//2
f 80//2 81//2 82//2
f 81//2 83//2 82//2
f 317//2 319//2 318//2
f 316//2 317//2 318//2
f 313//2 315//2 314//2
f 312//2 313//2 314//2
f 84//1 85//1 86//1
f 85//1 87//1 86//1
f 309//1 311//1 310//1
f 308//1 309//1 310//1
f 305//5 307//5 306//5
f 304//5 305//5 306//5
f 88//2 89//2 90//2
f 89//2 91//2 90//2
f 301//5 303//5 302//5
f 300//5 301//5 302//5
f 297//5 299//5 298//5
f 296//5 297//5 298//5
f 92//2 93//2 94//2
f 93//2 95//2 94//2
f 293//5 295//5 294//5
f 292//5 293//5 294//5
f 289//5 291//5 290//5
f 288//5 289//5 290//5
f 96//2 97//2 98//2
f 97//2 99//2 98//2
f 285//2 287//2 286//2
f 284//2 285//2 286//2
f 281//2 283//2 282//2
f 280//2 281//2 282//2
f 100//2 101//2 102//2
f 101//2 103//2 102//2
f 277//5 279//5 278//5
f 276//5 277//5 278//5
f 273//5 275//5 274//5
f 272//5 273//5 274//5
f 104//6 105//6 106//6
f 105//6 107//6 106//6
f 269//1 271//1 270//1
f 268//1 269//1 270//1
f 265//6 267//6 266//6
f 264//6 265//6 266//6
f 108//6 109//6 110//6
f 109//6 111//6 110//6
f 259//3 262//3 263//3
f 261//3 262//3 259//3
f 258//3 261//3 259//3
f 256//3 259//3 260//3
f 112//6 113//6 114//6
f 113//6 115//6 114//6
f 258//3 259//3 256//3
f 254//3 258//3 256//3
f 255//3 256//3 257//3
f 254//3 256//3 255//3
f 116//6 117//6 118//6
f 117//6 119//6 118//6
f 253//3 254//3 255//3
f 252//3 254//3 253//3
f 251//3 252//3 253//3
f 249//4 250//4 247//4
f 120//2 121//2 122//2
f 121//2 123//2 122//2
f 246//4 249//4 247//4
f 244//4 247//4 248//4
f 246//4 247//4 244//4
f 242//4 246//4 244//4
f 124//2 125//2 126//2
f 125//2 127//2 126//2
f 243//4 244//4 245//4
f 242//4 244//4 243//4
f 241//4 242//4 243//4
f 240//4 242//4 241//4
f 128//6 129//6 130//6
f 129//6 131//6 130//6
f 238//4 240//4 241//4
f 238//4 239//4 240//4
f 237//4 239//4 238//4
f 235//4 237//4 238//4
f 132//5 133//5 134//5
f 133//5 135//5 134//5
f 235//4 236//4 237//4
f 234//4 236//4 235//4
f 233//4 234//4 235//4
f 231//4 234//4 233//4
f 136//2 137//2 138//2
f 137//2 139//2 138//2
f 232//4 231//4 233//4
f 231//4 232//4 230//4
f 229//4 231//4 230//4
f 229//4 230//4 228//4
f 140//1 141//1 142//1
f 141//1 143//1 142//1
f 227//4 229//4 228//4
f 227//4 228//4 226//4
f 224//4 227//4 226//4
f 224//4 226//4 225//4
f 144//3 145//3 146//3
f 145//3 147//3 146//3
f 146//3 147//3 148//3
f 223//4 224//4 225//4
f 222//4 224//4 223//4
f 221//4 222//4 223//4
f 220//3 146//3 148//3
f 218//3 220//3 148//3
f 147//3 145//3 149//3
f 145//3 150//3 149//3
f 217//3 148//3 219//3
f 218//3 148//3 217//3
f 214//3 218//3 217//3
f 214//3 217//3 216//3
f 151//5 152//5 153//5
f 152//5 154//5 153//5
f 213//3 214//3 216//3
f 211//3 215//3 214//3
f 213//3 211//3 214//3
f 211//3 213//3 212//3
f 155//2 156//2 157//2
f 156//2 158//2 157//2
f 210//3 211//3 212//3
f 209//3 211//3 210//3
f 207//3 209//3 210//3
f 208//3 209//3 207//3
f 159//1 160//1 161//1
f 160//1 162//1 161//1
f 206//3 208//3 207//3
f 206//3 207//3 205//3
f 204//3 206//3 205//3
f 204//3 205//3 203//3
f 163//5 164//5 165//5
f 164//5 166//5 165//5
f 202//3 204//3 203//3
f 202//3 203//3 200//3
f 166//5 164//5 167//5
f 164//5 168//5 167//5
f 198//3 202//3 200//3
f 199//3 200//3 201//3
f 198//3 200//3 199//3
f 197//3 198//3 199//3
f 166//5 167//5 169//5
f 167//5 170//5 169//5
f 194//1 196//1 195//1
f 193//1 194//1 195//1
f 190//2 192//2 191//2
f 189//2 190//2 191//2
f 171//3 172//3 173//3
f 172//3 174//3 173//3
f 185//3 188//3 187//3
f 186//3 185//3 187//3
f 185//3 186//3 184//3
f 183//3 185//3 184//3
f 172//3 175//3 174//3
f 175//3 176//3 174//3
f 183//3 184//3 182//3
f 181//3 183//3 182//3
f 181//3 182//3 180//3
f 179//3 181//3 180//3
f 175//3 177//3 176//3
f 177//3 178//3 176//3
f 179//3 180//3 178//3
f 177//3 179//3 178//3
