# Blender 5.0.1
# www.blender.org
mtllib Enemy1.mtl
o model_0
v -5.500000 -2.669811 0.500000
v -5.500000 0.330189 0.500000
v -5.500000 -2.669811 -0.500000
v -5.500000 0.330189 -0.500000
v -4.500000 -0.669811 -0.500000
v -4.500000 0.330189 -0.500000
v -4.500000 -0.669811 -1.500000
v -4.500000 1.330189 -1.500000
v -4.500000 1.330189 1.500000
v -4.500000 0.330189 0.500000
v -4.500000 -0.669811 1.500000
v -4.500000 -0.669811 0.500000
v 1.500000 3.330189 -0.500000
v 1.500000 2.330189 -0.500000
v 1.500000 3.330189 0.500000
v 1.500000 2.330189 0.500000
v 5.500000 0.330189 0.500000
v 4.500000 0.330189 0.500000
v 5.500000 -2.669811 0.500000
v 4.500000 -0.669811 0.500000
v 4.500000 -2.669811 0.500000
v 3.500000 4.330187 -0.500000
v 2.500000 4.330187 -0.500000
v 3.500000 4.330187 0.500000
v 2.500000 4.330187 0.500000
v -2.500000 4.330187 -0.500000
v -3.500000 4.330187 -0.500000
v -2.500000 4.330187 0.500000
v -3.500000 4.330187 0.500000
v -2.500000 3.330189 0.500000
v -1.500000 3.330189 0.500000
v -2.500000 3.330189 -0.500000
v -1.500000 3.330189 -0.500000
v -2.500000 2.330189 -0.500000
v -1.500000 2.330189 -0.500000
v -2.500000 2.330189 -1.500000
v 1.500000 2.330189 -0.500000
v 2.500000 2.330189 -0.500000
v 1.500000 2.330189 0.500000
v -1.500000 2.330189 0.500000
v 2.500000 2.330189 1.500000
v -2.500000 2.330189 0.500000
v -2.500000 2.330189 1.500000
v 2.500000 2.330189 0.500000
v 2.500000 2.330189 -0.500000
v 2.500000 3.330189 0.500000
v 2.500000 3.330189 -0.500000
v -4.500000 0.330189 -0.500000
v -4.500000 -0.669811 -0.500000
v -5.500000 0.330189 -0.500000
v -4.500000 -2.669811 -0.500000
v -5.500000 -2.669811 -0.500000
v -3.500000 2.330189 -0.500000
v -3.500000 2.330189 0.500000
v -2.500000 1.330189 -1.500000
v -4.500000 1.330189 -1.500000
v -2.500000 1.330189 -0.500000
v -3.500000 1.330189 -0.500000
v -4.500000 1.330189 1.500000
v -3.500000 1.330189 0.500000
v -2.500000 1.330189 1.500000
v -2.500000 1.330189 0.500000
v 2.500000 -2.669811 1.500000
v 2.500000 -1.669811 1.500000
v 2.500000 -2.669811 -1.500000
v 2.500000 -1.669811 -1.500000
v -3.500000 1.330189 -0.500000
v -3.500000 2.330189 -0.500000
v -2.500000 1.330189 -0.500000
v -2.500000 2.330189 -0.500000
v 2.500000 1.330189 1.500000
v 4.500000 1.330189 1.500000
v 2.500000 1.330189 0.500000
v 3.500000 1.330189 0.500000
v 3.500000 1.330189 -0.500000
v 4.500000 1.330189 -1.500000
v 2.500000 1.330189 -1.500000
v 5.500000 0.330189 -0.500000
v 4.500000 0.330189 -0.500000
v 5.500000 0.330189 0.500000
v 4.500000 0.330189 0.500000
v -5.500000 0.330189 0.500000
v -4.500000 0.330189 0.500000
v -5.500000 0.330189 -0.500000
v -4.500000 0.330189 -0.500000
v 2.500000 -2.669811 -1.500000
v 1.500000 -2.669811 -1.500000
v 2.500000 -2.669811 1.500000
v 1.500000 -2.669811 -0.500000
v 1.500000 -2.669811 0.500000
v 0.500000 -2.669811 -0.500000
v 0.500000 -2.669811 0.500000
v -0.500000 -2.669811 -0.500000
v -1.500000 -2.669811 -0.500000
v -0.500000 -2.669811 0.500000
v -1.500000 -2.669811 0.500000
v -2.500000 -2.669811 1.500000
v -2.500000 -2.669811 -1.500000
v 2.500000 3.330189 0.500000
v 2.500000 3.330189 -0.500000
v 3.500000 3.330189 0.500000
v 3.500000 3.330189 -0.500000
v -2.500000 3.330189 -0.500000
v -2.500000 3.330189 0.500000
v -3.500000 3.330189 -0.500000
v -3.500000 3.330189 0.500000
v 1.500000 1.330189 1.500000
v 1.500000 1.330189 -1.500000
v 2.500000 1.330189 1.500000
v 2.500000 1.330189 -1.500000
v 4.500000 -0.669811 1.500000
v 3.500000 -0.669811 1.500000
v 4.500000 -0.669811 0.500000
v 4.500000 -0.669811 -0.500000
v 3.500000 -0.669811 -1.500000
v 4.500000 -0.669811 -1.500000
v 2.500000 0.330189 -1.500000
v 1.500000 0.330189 -1.500000
v 2.500000 0.330189 1.500000
v 1.500000 0.330189 1.500000
v -1.500000 0.330189 -1.500000
v -2.500000 0.330189 -1.500000
v -1.500000 0.330189 1.500000
v -2.500000 0.330189 1.500000
v -2.500000 -1.669811 1.500000
v -2.500000 -1.669811 -1.500000
v 2.500000 -1.669811 1.500000
v 2.500000 -1.669811 -1.500000
v 3.500000 -2.669811 1.500000
v 3.500000 -2.669811 -1.500000
v 3.500000 -0.669811 1.500000
v 3.500000 -0.669811 -1.500000
v 4.500000 -2.669811 0.500000
v 4.500000 -2.669811 -0.500000
v 5.500000 -2.669811 0.500000
v 5.500000 -2.669811 -0.500000
v -5.500000 -2.669811 0.500000
v -5.500000 -2.669811 -0.500000
v -4.500000 -2.669811 0.500000
v -4.500000 -2.669811 -0.500000
v -3.500000 3.330189 -0.500000
v -3.500000 4.330187 -0.500000
v -2.500000 3.330189 -0.500000
v -2.500000 4.330187 -0.500000
v -1.500000 2.330189 -0.500000
v -1.500000 3.330189 -0.500000
v -0.500000 -3.669811 -0.500000
v -0.500000 -3.669811 0.500000
v -1.500000 -3.669811 -0.500000
v -1.500000 -3.669811 0.500000
v -2.500000 -3.669811 1.500000
v -1.500000 -3.669811 1.500000
v -2.500000 -3.669811 -1.500000
v -1.500000 -3.669811 -1.500000
v 3.500000 1.330189 0.500000
v 3.500000 1.330189 -0.500000
v 3.500000 2.330189 0.500000
v 3.500000 2.330189 -0.500000
v -0.500000 -2.669811 -0.500000
v -0.500000 -3.669811 -0.500000
v -1.500000 -2.669811 -0.500000
v -1.500000 -3.669811 -0.500000
v 4.500000 1.330189 -1.500000
v 4.500000 -0.669811 -1.500000
v 2.500000 1.330189 -1.500000
v 3.500000 -0.669811 -1.500000
v 3.500000 -2.669811 -1.500000
v 2.500000 0.330189 -1.500000
v 2.500000 -1.669811 -1.500000
v 1.500000 0.330189 -1.500000
v -2.500000 -1.669811 -1.500000
v -1.500000 0.330189 -1.500000
v -2.500000 0.330189 -1.500000
v -1.500000 1.330189 -1.500000
v 1.500000 1.330189 -1.500000
v -2.500000 2.330189 -1.500000
v 2.500000 0.330189 1.500000
v 2.500000 1.330189 1.500000
v 2.500000 0.330189 -1.500000
v 2.500000 1.330189 -1.500000
v 1.500000 -2.669811 -0.500000
v 1.500000 -3.669811 -0.500000
v 0.500000 -2.669811 -0.500000
v 0.500000 -3.669811 -0.500000
v 3.500000 3.330189 0.500000
v 3.500000 3.330189 -0.500000
v 3.500000 4.330187 0.500000
v 3.500000 4.330187 -0.500000
v 2.500000 3.330189 -0.500000
v 2.500000 2.330189 -0.500000
v 1.500000 3.330189 -0.500000
v 1.500000 2.330189 -0.500000
v -1.500000 -2.669811 -1.500000
v -1.500000 -3.669811 -1.500000
v -2.500000 -2.669811 -1.500000
v -2.500000 -3.669811 -1.500000
v 3.500000 4.330187 -0.500000
v 3.500000 3.330189 -0.500000
v 2.500000 4.330187 -0.500000
v 2.500000 1.330189 -0.500000
v 3.500000 1.330189 -0.500000
v 3.500000 2.330189 -0.500000
v 1.500000 -3.669811 -1.500000
v 1.500000 -2.669811 -1.500000
v 2.500000 -3.669811 -1.500000
v 2.500000 -2.669811 -1.500000
v -3.500000 -2.669811 1.500000
v -3.500000 -0.669811 1.500000
v -3.500000 -2.669811 -1.500000
v -3.500000 -0.669811 -1.500000
v 4.500000 -0.669811 0.500000
v 4.500000 0.330189 0.500000
v 4.500000 -0.669811 1.500000
v 4.500000 1.330189 1.500000
v 4.500000 0.330189 -0.500000
v 4.500000 1.330189 -1.500000
v 4.500000 -0.669811 -1.500000
v 4.500000 -0.669811 -0.500000
v 5.500000 0.330189 -0.500000
v 5.500000 -2.669811 -0.500000
v 4.500000 0.330189 -0.500000
v 4.500000 -0.669811 -0.500000
v -2.500000 1.330189 -0.500000
v -2.500000 2.330189 -0.500000
v -2.500000 1.330189 -1.500000
v -2.500000 2.330189 -1.500000
v -3.500000 -2.669811 -1.500000
v -3.500000 -0.669811 -1.500000
v -4.500000 1.330189 -1.500000
v -2.500000 1.330189 -1.500000
v 2.500000 1.330189 0.500000
v 3.500000 1.330189 0.500000
v 2.500000 2.330189 0.500000
v 3.500000 2.330189 0.500000
v 1.500000 -2.669811 0.500000
v 0.500000 -2.669811 0.500000
v 1.500000 -3.669811 0.500000
v 0.500000 -3.669811 0.500000
v -1.500000 3.330189 0.500000
v -2.500000 3.330189 0.500000
v -1.500000 2.330189 0.500000
v -2.500000 2.330189 0.500000
v -2.500000 4.330187 0.500000
v -3.500000 4.330187 0.500000
v -3.500000 3.330189 0.500000
v -3.500000 2.330189 0.500000
v -2.500000 1.330189 0.500000
v -3.500000 1.330189 0.500000
v -4.500000 0.330189 0.500000
v -5.500000 0.330189 0.500000
v -4.500000 -0.669811 0.500000
v -4.500000 -2.669811 0.500000
v 4.500000 1.330189 1.500000
v 2.500000 1.330189 1.500000
v 4.500000 -0.669811 1.500000
v 3.500000 -0.669811 1.500000
v 3.500000 -2.669811 1.500000
v 2.500000 0.330189 1.500000
v 2.500000 -1.669811 1.500000
v 1.500000 0.330189 1.500000
v -2.500000 -1.669811 1.500000
v -1.500000 0.330189 1.500000
v -2.500000 0.330189 1.500000
v -1.500000 1.330189 1.500000
v 1.500000 1.330189 1.500000
v -2.500000 2.330189 1.500000
v 2.500000 2.330189 1.500000
v -1.500000 -2.669811 -1.500000
v -1.500000 -2.669811 -0.500000
v -1.500000 -3.669811 -1.500000
v -1.500000 -3.669811 -0.500000
v 1.500000 3.330189 0.500000
v 2.500000 3.330189 0.500000
v 1.500000 3.330189 -0.500000
v 2.500000 3.330189 -0.500000
v -2.500000 1.330189 1.500000
v -4.500000 1.330189 1.500000
v -3.500000 -0.669811 1.500000
v -2.500000 -2.669811 1.500000
v -4.500000 -0.669811 -0.500000
v -4.500000 -0.669811 0.500000
v -4.500000 -2.669811 -0.500000
v -4.500000 -2.669811 0.500000
v 2.500000 2.330189 0.500000
v 3.500000 2.330189 0.500000
v 3.500000 2.330189 -0.500000
v -2.500000 -2.669811 -1.500000
v -2.500000 -2.669811 1.500000
v -3.500000 -2.669811 -1.500000
v -3.500000 -2.669811 1.500000
v 1.500000 -3.669811 1.500000
v 1.500000 -3.669811 0.500000
v 2.500000 -3.669811 1.500000
v 1.500000 -3.669811 -0.500000
v 1.500000 -3.669811 -1.500000
v 0.500000 -3.669811 -0.500000
v 0.500000 -3.669811 0.500000
v -1.500000 -3.669811 1.500000
v -1.500000 -3.669811 0.500000
v -1.500000 -2.669811 1.500000
v -1.500000 -2.669811 0.500000
v -3.500000 -0.669811 -1.500000
v -3.500000 -0.669811 1.500000
v -4.500000 -0.669811 -1.500000
v -4.500000 -0.669811 -0.500000
v -4.500000 -0.669811 0.500000
v -4.500000 -0.669811 1.500000
v -2.500000 -3.669811 1.500000
v -2.500000 -2.669811 1.500000
v -2.500000 -3.669811 -1.500000
v -2.500000 -2.669811 -1.500000
v 2.500000 1.330189 1.500000
v 2.500000 1.330189 0.500000
v 2.500000 2.330189 1.500000
v 1.500000 1.330189 -1.500000
v 1.500000 1.330189 1.500000
v 1.500000 0.330189 -1.500000
v 1.500000 0.330189 1.500000
v -0.500000 -2.669811 -0.500000
v -0.500000 -2.669811 0.500000
v -0.500000 -3.669811 -0.500000
v -0.500000 -3.669811 0.500000
v 1.500000 -3.669811 1.500000
v 1.500000 -2.669811 1.500000
v 1.500000 -3.669811 0.500000
v 1.500000 -2.669811 0.500000
v 0.500000 -2.669811 -0.500000
v 0.500000 -3.669811 -0.500000
v 0.500000 -2.669811 0.500000
v 0.500000 -3.669811 0.500000
v -2.500000 1.330189 1.500000
v -2.500000 2.330189 1.500000
v -2.500000 1.330189 0.500000
v -2.500000 2.330189 0.500000
v 2.500000 -2.669811 1.500000
v 1.500000 -2.669811 1.500000
v 2.500000 -3.669811 1.500000
v 1.500000 -3.669811 1.500000
v -2.500000 3.330189 0.500000
v -2.500000 3.330189 -0.500000
v -2.500000 4.330187 0.500000
v -2.500000 4.330187 -0.500000
v -1.500000 0.330189 1.500000
v -1.500000 1.330189 1.500000
v -1.500000 0.330189 -1.500000
v -1.500000 1.330189 -1.500000
v -2.500000 3.330189 0.500000
v -2.500000 3.330189 -0.500000
v 4.500000 -0.669811 -0.500000
v 4.500000 -2.669811 -0.500000
v 4.500000 -0.669811 0.500000
v 4.500000 -2.669811 0.500000
v 3.500000 4.330187 0.500000
v 2.500000 4.330187 0.500000
v 3.500000 3.330189 0.500000
v 2.500000 3.330189 0.500000
v -2.500000 1.330189 -1.500000
v -2.500000 1.330189 1.500000
v -2.500000 0.330189 -1.500000
v -2.500000 0.330189 1.500000
v -1.500000 -3.669811 0.500000
v -0.500000 -3.669811 0.500000
v -1.500000 -2.669811 0.500000
v -0.500000 -2.669811 0.500000
v 3.500000 -2.669811 -1.500000
v 3.500000 -2.669811 1.500000
v 2.500000 -2.669811 -1.500000
v 2.500000 -2.669811 1.500000
v 1.500000 -3.669811 -0.500000
v 1.500000 -2.669811 -0.500000
v 1.500000 -3.669811 -1.500000
v 1.500000 -2.669811 -1.500000
v -3.500000 3.330189 0.500000
v -3.500000 4.330187 0.500000
v -3.500000 3.330189 -0.500000
v -3.500000 4.330187 -0.500000
v -3.500000 2.330189 -0.500000
v -3.500000 1.330189 -0.500000
v -3.500000 2.330189 0.500000
v -3.500000 1.330189 0.500000
v 5.500000 0.330189 -0.500000
v 5.500000 0.330189 0.500000
v 5.500000 -2.669811 -0.500000
v 5.500000 -2.669811 0.500000
v 1.500000 3.330189 0.500000
v 1.500000 2.330189 0.500000
v 2.500000 4.330187 -0.500000
v 2.500000 3.330189 -0.500000
v 2.500000 4.330187 0.500000
v 2.500000 3.330189 0.500000
v 2.500000 1.330189 -0.500000
v 2.500000 1.330189 -1.500000
v 2.500000 2.330189 -1.500000
v -1.500000 -2.669811 1.500000
v -1.500000 -3.669811 1.500000
v -2.500000 -3.669811 1.500000
v -1.500000 2.330189 0.500000
v -1.500000 2.330189 -0.500000
v -1.500000 3.330189 0.500000
v -1.500000 3.330189 -0.500000
v -2.500000 -1.669811 -1.500000
v -2.500000 -1.669811 1.500000
v -2.500000 -2.669811 -1.500000
v -2.500000 -2.669811 1.500000
v 2.500000 -2.669811 -1.500000
v 2.500000 -2.669811 1.500000
v 2.500000 -3.669811 -1.500000
v 2.500000 -3.669811 1.500000
v -1.500000 1.330189 -1.500000
v -1.500000 1.330189 1.500000
v -2.500000 1.330189 -1.500000
v -2.500000 1.330189 1.500000
v -4.500000 -0.669811 1.500000
v -3.500000 -2.669811 1.500000
v -5.500000 -2.669811 0.500000
v 4.500000 -2.669811 -0.500000
v -4.500000 -0.669811 -1.500000
v 2.500000 2.330189 -1.500000
v 2.500000 -3.669811 -1.500000
v -1.500000 -2.669811 1.500000
v 1.500000 -2.669811 1.500000
v -1.500000 -2.669811 -1.500000
v 2.500000 1.330189 -0.500000
v 2.500000 2.330189 -1.500000
vn -1.0000 -0.0000 0.0022
vn -0.0000 1.0000 0.0022
vn -0.0000 -1.0000 0.0022
vn -0.0000 -0.0000 -1.0000
vn -0.0000 -0.0000 1.0000
vn 1.0000 -0.0000 0.0022
s 1
f 1//1 2//1 3//1
f 2//1 4//1 3//1
f 36//2 38//2 424//2
f 39//2 41//2 284//2
f 423//2 75//2 77//2
f 98//2 94//2 422//2
f 5//1 6//1 7//1
f 6//1 8//1 7//1
f 421//2 88//2 90//2
f 97//2 420//2 96//2
f 8//1 6//1 9//1
f 6//1 10//1 9//1
f 9//1 10//1 11//1
f 10//1 12//1 11//1
f 419//3 293//3 295//3
f 206//4 169//4 167//4
f 165//4 176//4 418//4
f 230//4 176//4 174//4
f 13//1 14//1 15//1
f 14//1 16//1 15//1
f 417//4 229//4 228//4
f 416//4 222//4 220//4
f 252//5 250//5 415//5
f 257//5 259//5 335//5
f 17//5 18//5 19//5
f 18//5 20//5 19//5
f 19//5 20//5 21//5
f 264//5 266//5 276//5
f 279//5 278//5 414//5
f 278//5 277//5 413//5
f 410//3 412//3 411//3
f 409//3 410//3 411//3
f 22//2 23//2 24//2
f 23//2 25//2 24//2
f 406//6 408//6 407//6
f 405//6 406//6 407//6
f 402//6 404//6 403//6
f 401//6 402//6 403//6
f 26//2 27//2 28//2
f 27//2 29//2 28//2
f 398//6 400//6 399//6
f 397//6 398//6 399//6
f 279//5 396//5 395//5
f 394//5 279//5 395//5
f 30//2 31//2 32//2
f 31//2 33//2 32//2
f 392//6 393//6 45//6
f 391//6 392//6 45//6
f 388//1 390//1 389//1
f 387//1 388//1 389//1
f 34//2 35//2 36//2
f 35//2 37//2 36//2
f 36//2 37//2 38//2
f 385//5 386//5 233//5
f 356//5 385//5 233//5
f 382//6 384//6 383//6
f 381//6 382//6 383//6
f 378//1 380//1 379//1
f 37//2 35//2 39//2
f 35//2 40//2 39//2
f 39//2 40//2 41//2
f 40//2 42//2 41//2
f 41//2 42//2 43//2
f 377//1 378//1 379//1
f 374//1 376//1 375//1
f 373//1 374//1 375//1
f 370//1 372//1 371//1
f 369//1 370//1 371//1
f 44//6 45//6 46//6
f 45//6 47//6 46//6
f 366//3 368//3 367//3
f 365//3 366//3 367//3
f 362//5 364//5 363//5
f 361//5 362//5 363//5
f 48//4 49//4 50//4
f 49//4 51//4 50//4
f 50//4 51//4 52//4
f 358//6 360//6 359//6
f 357//6 358//6 359//6
f 354//5 356//5 355//5
f 353//5 354//5 355//5
f 350//1 352//1 351//1
f 34//2 53//2 42//2
f 53//2 54//2 42//2
f 349//1 350//1 351//1
f 347//1 348//1 224//1
f 334//1 347//1 224//1
f 344//1 346//1 345//1
f 55//2 56//2 57//2
f 56//2 58//2 57//2
f 343//1 344//1 345//1
f 340//6 342//6 341//6
f 339//6 340//6 341//6
f 336//5 338//5 337//5
f 56//2 59//2 58//2
f 59//2 60//2 58//2
f 335//5 336//5 337//5
f 332//1 334//1 333//1
f 331//1 332//1 333//1
f 328//1 330//1 329//1
f 59//2 61//2 60//2
f 61//2 62//2 60//2
f 327//1 328//1 329//1
f 324//1 326//1 325//1
f 323//1 324//1 325//1
f 320//6 322//6 321//6
f 63//1 64//1 65//1
f 64//1 66//1 65//1
f 319//6 320//6 321//6
f 316//6 318//6 317//6
f 315//6 316//6 317//6
f 313//6 44//6 314//6
f 67//4 68//4 69//4
f 68//4 70//4 69//4
f 312//6 313//6 314//6
f 309//1 311//1 310//1
f 308//1 309//1 310//1
f 303//3 307//3 306//3
f 71//2 72//2 73//2
f 72//2 74//2 73//2
f 305//3 303//3 306//3
f 303//3 305//3 304//3
f 74//2 72//2 75//2
f 72//2 76//2 75//2
f 75//2 76//2 77//2
f 302//3 303//3 304//3
f 299//6 301//6 300//6
f 298//6 299//6 300//6
f 292//3 297//3 296//3
f 294//3 292//3 296//3
f 78//2 79//2 80//2
f 79//2 81//2 80//2
f 293//3 294//3 295//3
f 292//3 294//3 293//3
f 291//3 292//3 293//3
f 288//3 290//3 289//3
f 82//2 83//2 84//2
f 83//2 85//2 84//2
f 287//3 288//3 289//3
f 285//2 286//2 38//2
f 284//2 285//2 38//2
f 281//6 283//6 282//6
f 86//2 87//2 88//2
f 87//2 89//2 88//2
f 88//2 89//2 90//2
f 89//2 91//2 90//2
f 90//2 91//2 92//2
f 280//6 281//6 282//6
f 278//5 279//5 261//5
f 263//5 278//5 261//5
f 277//5 278//5 263//5
f 276//5 277//5 263//5
f 93//2 94//2 95//2
f 94//2 96//2 95//2
f 273//2 275//2 274//2
f 272//2 273//2 274//2
f 96//2 94//2 97//2
f 94//2 98//2 97//2
f 269//6 271//6 270//6
f 268//6 269//6 270//6
f 266//5 254//5 267//5
f 265//5 254//5 266//5
f 99//3 100//3 101//3
f 100//3 102//3 101//3
f 264//5 265//5 266//5
f 260//5 265//5 264//5
f 262//5 260//5 264//5
f 261//5 262//5 263//5
f 103//3 104//3 105//3
f 104//3 106//3 105//3
f 260//5 262//5 261//5
f 259//5 260//5 261//5
f 258//5 260//5 259//5
f 257//5 258//5 259//5
f 107//3 108//3 109//3
f 108//3 110//3 109//3
f 254//5 258//5 257//5
f 256//5 254//5 257//5
f 254//5 256//5 255//5
f 253//5 254//5 255//5
f 111//3 112//3 113//3
f 112//3 114//3 113//3
f 250//5 252//5 251//5
f 249//5 250//5 251//5
f 246//5 248//5 247//5
f 242//5 246//5 247//5
f 112//3 115//3 114//3
f 115//3 116//3 114//3
f 244//5 245//5 240//5
f 243//5 244//5 240//5
f 240//5 242//5 241//5
f 239//5 240//5 241//5
f 117//2 118//2 119//2
f 118//2 120//2 119//2
f 236//5 238//5 237//5
f 235//5 236//5 237//5
f 232//5 234//5 233//5
f 231//5 232//5 233//5
f 121//2 122//2 123//2
f 122//2 124//2 123//2
f 173//4 229//4 230//4
f 228//4 229//4 173//4
f 171//4 228//4 173//4
f 228//4 171//4 195//4
f 125//3 126//3 127//3
f 126//3 128//3 127//3
f 227//4 228//4 195//4
f 224//1 226//1 225//1
f 223//1 224//1 225//1
f 220//4 222//4 221//4
f 129//6 130//6 131//6
f 130//6 132//6 131//6
f 219//4 220//4 221//4
f 215//6 218//6 217//6
f 216//6 215//6 217//6
f 215//6 216//6 214//6
f 133//3 134//3 135//3
f 134//3 136//3 135//3
f 212//6 215//6 214//6
f 212//6 214//6 213//6
f 211//6 212//6 213//6
f 208//1 210//1 209//1
f 137//3 138//3 139//3
f 138//3 140//3 139//3
f 207//1 208//1 209//1
f 204//4 206//4 205//4
f 203//4 204//4 205//4
f 190//4 202//4 201//4
f 141//4 142//4 143//4
f 142//4 144//4 143//4
f 200//4 190//4 201//4
f 198//4 189//4 199//4
f 197//4 198//4 199//4
f 194//4 196//4 195//4
f 70//4 143//4 145//4
f 143//4 146//4 145//4
f 193//4 194//4 195//4
f 190//4 192//4 191//4
f 189//4 190//4 191//4
f 186//6 188//6 187//6
f 147//3 148//3 149//3
f 148//3 150//3 149//3
f 149//3 150//3 151//3
f 150//3 152//3 151//3
f 185//6 186//6 187//6
f 182//4 184//4 183//4
f 181//4 182//4 183//4
f 178//1 180//1 179//1
f 151//3 153//3 149//3
f 153//3 154//3 149//3
f 177//1 178//1 179//1
f 176//4 165//4 175//4
f 174//4 176//4 175//4
f 174//4 175//4 170//4
f 155//6 156//6 157//6
f 156//6 158//6 157//6
f 172//4 174//4 170//4
f 171//4 173//4 172//4
f 170//4 171//4 172//4
f 169//4 171//4 170//4
f 159//4 160//4 161//4
f 160//4 162//4 161//4
f 168//4 169//4 170//4
f 167//4 169//4 168//4
f 165//4 167//4 168//4
f 165//4 166//4 167//4
f 163//4 164//4 165//4
f 164//4 166//4 165//4
