# Blender 5.0.1
# www.blender.org
mtllib Enemy2.mtl
o model_3
v -5.500000 -1.226418 0.500000
v -5.500000 2.773582 0.500000
v -5.500000 -1.226418 -0.500000
v -5.500000 2.773582 -0.500000
v -4.500000 -3.226418 -0.500000
v -4.500000 -4.226418 -0.500000
v -4.500000 -3.226418 0.500000
v -4.500000 -4.226418 0.500000
v -3.500000 -1.226418 -1.500000
v -3.500000 -2.226418 -1.500000
v -3.500000 -1.226418 -0.500000
v -3.500000 -2.226418 -0.500000
v 3.500000 -1.226418 0.500000
v 3.500000 -1.226417 1.500000
v 3.500000 -2.226418 0.500000
v 3.500000 -2.226418 1.500000
v 2.500000 1.773582 -1.500000
v -2.500000 1.773582 -1.500000
v 2.500000 1.773582 -0.500000
v 1.500000 1.773582 -0.500000
v -1.500000 1.773582 -0.500000
v -2.500000 1.773582 -0.500000
v 1.500000 1.773582 0.500000
v -1.500000 1.773582 0.500000
v 2.500000 1.773583 1.500000
v -2.500000 1.773582 0.500000
v -2.500000 1.773583 1.500000
v -2.500000 3.773582 -0.500000
v -3.500000 3.773582 -0.500000
v -2.500000 3.773582 0.500000
v -3.500000 3.773582 0.500000
v 5.500000 2.773582 -0.500000
v 4.500000 2.773582 -0.500000
v 5.500000 2.773582 0.500000
v 4.500000 2.773582 0.500000
v 2.500000 2.773582 -0.500000
v 1.500000 2.773582 -0.500000
v 2.500000 2.773582 0.500000
v 1.500000 2.773582 0.500000
v -5.500000 2.773582 0.500000
v -4.500000 2.773582 0.500000
v -5.500000 2.773582 -0.500000
v -4.500000 2.773582 -0.500000
v 2.500000 1.773582 0.500000
v 3.500000 1.773582 0.500000
v 3.500000 1.773582 -0.500000
v 4.500000 -1.226418 0.500000
v 5.500000 -1.226418 0.500000
v 4.500000 0.773583 0.500000
v 4.500000 2.773582 0.500000
v -3.500000 1.773582 0.500000
v -3.500000 1.773582 -0.500000
v -2.500000 2.773582 0.500000
v -1.500000 2.773582 0.500000
v -2.500000 2.773582 -0.500000
v -1.500000 2.773582 -0.500000
v 3.500000 3.773582 0.500000
v 2.500000 3.773582 0.500000
v 3.500000 2.773582 0.500000
v 2.500000 2.773582 0.500000
v 2.500000 0.773582 -0.500000
v 3.500000 0.773582 -0.500000
v 2.500000 0.773582 -1.500000
v 4.500000 0.773582 -0.500000
v 4.500000 0.773582 -1.500000
v 4.500000 0.773583 0.500000
v 3.500000 0.773583 0.500000
v 4.500000 0.773583 1.500000
v 2.500000 0.773583 0.500000
v 2.500000 0.773583 1.500000
v -4.500000 2.773582 -0.500000
v -4.500000 0.773582 -0.500000
v -5.500000 2.773582 -0.500000
v -4.500000 -1.226418 -0.500000
v -5.500000 -1.226418 -0.500000
v 3.500000 -1.226418 -1.500000
v 3.500000 -1.226418 -0.500000
v 3.500000 -2.226418 -1.500000
v 3.500000 -2.226418 -0.500000
v -2.500000 0.773583 0.500000
v -3.500000 0.773583 0.500000
v -2.500000 0.773583 1.500000
v -4.500000 0.773583 0.500000
v -4.500000 0.773583 1.500000
v -4.500000 0.773582 -0.500000
v -3.500000 0.773582 -0.500000
v -4.500000 0.773582 -1.500000
v -2.500000 0.773582 -0.500000
v -2.500000 0.773582 -1.500000
v 4.500000 -3.226418 -0.500000
v 3.500000 -3.226418 -0.500000
v 4.500000 -3.226418 0.500000
v 3.500000 -3.226418 0.500000
v -3.500000 -3.226418 -0.500000
v -4.500000 -3.226418 -0.500000
v -3.500000 -3.226418 0.500000
v -4.500000 -3.226418 0.500000
v 3.500000 2.773582 -0.500000
v 3.500000 2.773582 0.500000
v 2.500000 2.773582 -0.500000
v 2.500000 2.773582 0.500000
v -2.500000 2.773582 -0.500000
v -2.500000 2.773582 0.500000
v -3.500000 2.773582 -0.500000
v -3.500000 2.773582 0.500000
v 2.500000 0.773582 -1.500000
v 2.500000 0.773583 1.500000
v 1.500000 0.773582 -1.500000
v 1.500000 0.773583 1.500000
v -2.500000 0.773583 1.500000
v -2.500000 0.773582 -1.500000
v -1.500000 0.773583 1.500000
v -1.500000 0.773582 -1.500000
v 4.500000 -1.226418 -1.500000
v 4.500000 -1.226418 -0.500000
v 3.500000 -1.226418 -1.500000
v 3.500000 -1.226418 -0.500000
v 5.500000 -1.226418 -0.500000
v 5.500000 -1.226418 0.500000
v 4.500000 -1.226418 0.500000
v -4.500000 -1.226418 -0.500000
v -4.500000 -1.226418 0.500000
v -5.500000 -1.226418 -0.500000
v -5.500000 -1.226418 0.500000
v 3.500000 -1.226417 1.500000
v 3.500000 -1.226418 0.500000
v 4.500000 -1.226417 1.500000
v -4.500000 -1.226417 1.500000
v -3.500000 -1.226417 1.500000
v -3.500000 -1.226418 0.500000
v -3.500000 -2.226418 -0.500000
v -3.500000 -2.226418 -1.500000
v -2.500000 -2.226418 -0.500000
v 2.500000 -2.226418 -0.500000
v 2.500000 -2.226418 0.500000
v -2.500000 -2.226418 0.500000
v 3.500000 -2.226418 1.500000
v -3.500000 -2.226418 0.500000
v -3.500000 -2.226418 1.500000
v -2.500000 -0.226417 1.500000
v -1.500000 -0.226417 1.500000
v -2.500000 -0.226418 -1.500000
v -1.500000 -0.226418 -1.500000
v -3.500000 -3.226418 -0.500000
v -3.500000 -4.226418 -0.500000
v -4.500000 -3.226418 -0.500000
v -4.500000 -4.226418 -0.500000
v 3.500000 -2.226418 -0.500000
v 3.500000 -2.226418 -1.500000
v -3.500000 -3.226418 0.500000
v -3.500000 -3.226418 -0.500000
v -2.500000 -3.226418 0.500000
v -2.500000 -3.226418 -0.500000
v 3.500000 -4.226418 0.500000
v 3.500000 -4.226418 -0.500000
v 4.500000 -4.226418 0.500000
v 4.500000 -4.226418 -0.500000
v -4.500000 -2.226418 0.500000
v -4.500000 -2.226418 -0.500000
v 3.500000 0.773583 0.500000
v 3.500000 0.773582 -0.500000
v 3.500000 1.773582 0.500000
v 3.500000 1.773582 -0.500000
v -3.500000 -1.226418 -0.500000
v -3.500000 -2.226418 -0.500000
v -4.500000 -2.226418 -0.500000
v -3.500000 0.773583 0.500000
v -3.500000 1.773582 0.500000
v -3.500000 0.773582 -0.500000
v -3.500000 1.773582 -0.500000
v -2.500000 -3.226418 -0.500000
v -2.500000 -2.226418 -0.500000
v -3.500000 0.773582 -0.500000
v -3.500000 1.773582 -0.500000
v -2.500000 0.773582 -0.500000
v -2.500000 1.773582 -0.500000
v 2.500000 2.773582 0.500000
v 2.500000 3.773582 0.500000
v 2.500000 2.773582 -0.500000
v 2.500000 3.773582 -0.500000
v 3.500000 3.773582 -0.500000
v 3.500000 3.773582 0.500000
v 3.500000 2.773582 -0.500000
v 3.500000 2.773582 0.500000
v -3.500000 2.773582 -0.500000
v -3.500000 3.773582 -0.500000
v -2.500000 2.773582 -0.500000
v -2.500000 3.773582 -0.500000
v -2.500000 0.773582 -1.500000
v -2.500000 -0.226418 -1.500000
v -4.500000 0.773582 -1.500000
v -3.500000 -1.226418 -1.500000
v -4.500000 -1.226418 -1.500000
v -3.500000 -2.226418 -1.500000
v -1.500000 -0.226418 -1.500000
v 1.500000 -0.226418 -1.500000
v -1.500000 0.773582 -1.500000
v 1.500000 0.773582 -1.500000
v -2.500000 1.773582 -1.500000
v 2.500000 0.773582 -1.500000
v 2.500000 1.773582 -1.500000
v 2.500000 -0.226418 -1.500000
v 3.500000 -2.226418 -1.500000
v 3.500000 -1.226418 -1.500000
v 4.500000 -1.226418 -1.500000
v 4.500000 0.773582 -1.500000
v 4.500000 -1.226418 -0.500000
v 4.500000 -2.226418 -0.500000
v 3.500000 -1.226418 -0.500000
v 3.500000 -2.226418 -0.500000
v 2.500000 0.773582 -0.500000
v 2.500000 1.773582 -0.500000
v 3.500000 0.773582 -0.500000
v 3.500000 1.773582 -0.500000
v 3.500000 -4.226418 -0.500000
v 3.500000 -3.226418 -0.500000
v 4.500000 -4.226418 -0.500000
v 4.500000 -3.226418 -0.500000
v 2.500000 -2.226418 -0.500000
v 2.500000 -3.226418 -0.500000
v 2.500000 2.773582 -0.500000
v 1.500000 2.773582 -0.500000
v 1.500000 1.773582 -0.500000
v 3.500000 3.773582 -0.500000
v 3.500000 2.773582 -0.500000
v 2.500000 3.773582 -0.500000
v 2.500000 -3.226418 0.500000
v 2.500000 -2.226418 0.500000
v 2.500000 -3.226418 -0.500000
v 2.500000 -2.226418 -0.500000
v 3.500000 -2.226418 0.500000
v 4.500000 -2.226418 0.500000
v 3.500000 -1.226418 0.500000
v 3.500000 -4.226418 0.500000
v 4.500000 -4.226418 0.500000
v 3.500000 -3.226418 0.500000
v 4.500000 -3.226418 0.500000
v 2.500000 3.773582 0.500000
v 3.500000 3.773582 0.500000
v 2.500000 3.773582 -0.500000
v 3.500000 3.773582 -0.500000
v 2.500000 0.773583 0.500000
v 3.500000 0.773583 0.500000
v 2.500000 1.773582 0.500000
v 3.500000 1.773582 0.500000
v 2.500000 -3.226418 0.500000
v 2.500000 -2.226418 0.500000
v 1.500000 1.773582 0.500000
v 1.500000 2.773582 0.500000
v -2.500000 1.773582 0.500000
v -1.500000 1.773582 0.500000
v -2.500000 2.773582 0.500000
v -1.500000 2.773582 0.500000
v -3.500000 2.773582 0.500000
v -3.500000 3.773582 0.500000
v -2.500000 3.773582 0.500000
v -3.500000 0.773583 0.500000
v -2.500000 0.773583 0.500000
v -3.500000 1.773582 0.500000
v -3.500000 -3.226418 0.500000
v -2.500000 -3.226418 0.500000
v -3.500000 -2.226418 0.500000
v -2.500000 -2.226418 0.500000
v -4.500000 -2.226418 0.500000
v -4.500000 -1.226418 0.500000
v -3.500000 -1.226418 0.500000
v -4.500000 -4.226418 0.500000
v -3.500000 -4.226418 0.500000
v -4.500000 -3.226418 0.500000
v -2.500000 3.773582 -0.500000
v -2.500000 3.773582 0.500000
v -2.500000 2.773582 -0.500000
v -2.500000 2.773582 0.500000
v 4.500000 0.773583 1.500000
v 2.500000 0.773583 1.500000
v 4.500000 -1.226417 1.500000
v 3.500000 -1.226417 1.500000
v 3.500000 -2.226418 1.500000
v 2.500000 -0.226417 1.500000
v -3.500000 -2.226418 1.500000
v 1.500000 -0.226417 1.500000
v -1.500000 -0.226417 1.500000
v -1.500000 0.773583 1.500000
v 1.500000 0.773583 1.500000
v -2.500000 1.773583 1.500000
v -2.500000 0.773583 1.500000
v 2.500000 1.773583 1.500000
v 4.500000 -2.226418 -0.500000
v 4.500000 -2.226418 0.500000
v 3.500000 -2.226418 0.500000
v -2.500000 0.773582 -0.500000
v -2.500000 1.773582 -0.500000
v -2.500000 0.773582 -1.500000
v -2.500000 1.773582 -1.500000
v -2.500000 -0.226417 1.500000
v -3.500000 -1.226417 1.500000
v -4.500000 0.773583 1.500000
v -4.500000 0.773583 0.500000
v -4.500000 0.773582 -0.500000
v -4.500000 2.773582 0.500000
v -4.500000 2.773582 -0.500000
v 5.500000 2.773582 -0.500000
v 5.500000 2.773582 0.500000
v 5.500000 -1.226418 -0.500000
v 5.500000 -1.226418 0.500000
v 4.500000 0.773582 -1.500000
v 4.500000 0.773582 -0.500000
v 4.500000 -1.226418 -1.500000
v 4.500000 -1.226418 -0.500000
v 4.500000 -1.226418 0.500000
v 4.500000 -2.226418 -0.500000
v 4.500000 -2.226418 0.500000
v 4.500000 -3.226418 -0.500000
v 4.500000 -3.226418 0.500000
v 4.500000 -4.226418 -0.500000
v 4.500000 -4.226418 0.500000
v -2.500000 1.773582 0.500000
v -2.500000 0.773583 0.500000
v -2.500000 1.773583 1.500000
v -2.500000 0.773583 1.500000
v 4.500000 -1.226417 1.500000
v 4.500000 0.773583 1.500000
v 4.500000 0.773583 0.500000
v -2.500000 -3.226418 0.500000
v -2.500000 -3.226418 -0.500000
v -2.500000 -2.226418 0.500000
v -2.500000 -2.226418 -0.500000
v -4.500000 0.773583 0.500000
v -4.500000 -1.226418 0.500000
v -4.500000 0.773583 1.500000
v -4.500000 -1.226417 1.500000
v -4.500000 -1.226418 -0.500000
v -4.500000 -2.226418 -0.500000
v -4.500000 -2.226418 0.500000
v 2.500000 1.773582 -1.500000
v 2.500000 1.773582 -0.500000
v 2.500000 0.773582 -1.500000
v 2.500000 0.773582 -0.500000
v 2.500000 1.773582 0.500000
v 2.500000 1.773583 1.500000
v 2.500000 0.773583 0.500000
v 2.500000 0.773583 1.500000
v 1.500000 0.773582 -1.500000
v 1.500000 0.773583 1.500000
v 1.500000 -0.226418 -1.500000
v 1.500000 -0.226417 1.500000
v -1.500000 2.773582 -0.500000
v -1.500000 2.773582 0.500000
v -1.500000 1.773582 -0.500000
v -1.500000 1.773582 0.500000
v -2.500000 2.773582 0.500000
v -2.500000 2.773582 -0.500000
v -3.500000 -3.226418 0.500000
v -3.500000 -2.226418 0.500000
v -3.500000 -3.226418 -0.500000
v -4.500000 -4.226418 0.500000
v -4.500000 -4.226418 -0.500000
v -3.500000 -4.226418 0.500000
v -3.500000 -4.226418 -0.500000
v 2.500000 0.773582 -1.500000
v 2.500000 -0.226418 -1.500000
v 2.500000 0.773583 1.500000
v 2.500000 -0.226417 1.500000
v -3.500000 3.773582 -0.500000
v -3.500000 2.773582 -0.500000
v -3.500000 3.773582 0.500000
v -3.500000 2.773582 0.500000
v 4.500000 2.773582 -0.500000
v 4.500000 0.773582 -0.500000
v 4.500000 2.773582 0.500000
v 4.500000 0.773583 0.500000
v 3.500000 -4.226418 0.500000
v 3.500000 -3.226418 0.500000
v 3.500000 -4.226418 -0.500000
v 3.500000 -3.226418 -0.500000
v -4.500000 0.773582 -0.500000
v -4.500000 -1.226418 -1.500000
v -4.500000 0.773582 -1.500000
v 3.500000 -3.226418 -0.500000
v 3.500000 -3.226418 0.500000
v 2.500000 -3.226418 -0.500000
v 2.500000 -3.226418 0.500000
v 3.500000 -3.226418 0.500000
v 3.500000 -3.226418 -0.500000
v 1.500000 1.773582 0.500000
v 1.500000 2.773582 0.500000
v 1.500000 1.773582 -0.500000
v 1.500000 2.773582 -0.500000
v -1.500000 0.773582 -1.500000
v -1.500000 -0.226418 -1.500000
v -1.500000 0.773583 1.500000
v -1.500000 -0.226417 1.500000
v -4.500000 2.773582 0.500000
v -5.500000 2.773582 0.500000
v -4.500000 0.773583 0.500000
v -3.500000 -4.226418 0.500000
v -3.500000 -4.226418 -0.500000
v -3.500000 -3.226418 0.500000
v -3.500000 -3.226418 -0.500000
v -1.500000 2.773582 -0.500000
v -1.500000 1.773582 -0.500000
v -2.500000 -0.226417 1.500000
v -2.500000 -0.226418 -1.500000
v -2.500000 0.773583 1.500000
v -2.500000 0.773582 -1.500000
v 2.500000 2.773582 -0.500000
v 2.500000 2.773582 0.500000
v -3.500000 -1.226418 0.500000
v -3.500000 -1.226417 1.500000
v -3.500000 -2.226418 1.500000
v 2.500000 -0.226418 -1.500000
v 1.500000 -0.226418 -1.500000
v 2.500000 -0.226417 1.500000
v 1.500000 -0.226417 1.500000
v -4.500000 -1.226418 -1.500000
v -3.500000 -1.226418 -0.500000
v -3.500000 -1.226418 -1.500000
v 4.500000 0.773582 -0.500000
v 5.500000 -1.226418 -0.500000
v 4.500000 2.773582 -0.500000
v 5.500000 2.773582 -0.500000
v -4.500000 -1.226417 1.500000
v -5.500000 -1.226418 0.500000
v 5.500000 2.773582 0.500000
vn -1.0000 -0.0000 0.0022
vn -0.0000 1.0000 0.0022
vn -0.0000 -1.0000 0.0022
vn -0.0000 -0.0000 -1.0000
vn -0.0000 -0.0000 1.0000
vn 1.0000 -0.0000 0.0022
s 1
f 1//1 2//1 3//1
f 2//1 4//1 3//1
f 23//2 25//2 44//2
f 290//3 137//3 135//3
f 189//4 199//4 197//4
f 424//5 50//5 48//5
f 5//1 6//1 7//1
f 6//1 8//1 7//1
f 265//5 394//5 423//5
f 296//5 297//5 422//5
f 419//4 420//4 421//4
f 418//4 420//4 419//4
f 9//1 10//1 11//1
f 10//1 12//1 11//1
f 207//4 418//4 419//4
f 415//3 417//3 416//3
f 121//3 415//3 416//3
f 412//2 414//2 413//2
f 13//6 14//6 15//6
f 14//6 16//6 15//6
f 411//2 412//2 413//2
f 354//1 410//1 409//1
f 408//1 354//1 409//1
f 407//6 339//6 336//6
f 17//2 18//2 19//2
f 18//2 20//2 19//2
f 406//6 407//6 336//6
f 403//6 405//6 404//6
f 20//2 18//2 21//2
f 18//2 22//2 21//2
f 402//6 403//6 404//6
f 401//4 176//4 187//4
f 400//4 401//4 187//4
f 397//6 399//6 398//6
f 20//2 21//2 23//2
f 21//2 24//2 23//2
f 23//2 24//2 25//2
f 24//2 26//2 25//2
f 25//2 26//2 27//2
f 396//6 397//6 398//6
f 394//5 265//5 395//5
f 393//5 394//5 395//5
f 390//1 392//1 391//1
f 389//1 390//1 391//1
f 28//2 29//2 30//2
f 29//2 31//2 30//2
f 386//1 388//1 387//1
f 385//1 386//1 387//1
f 384//6 79//6 15//6
f 383//6 384//6 15//6
f 32//2 33//2 34//2
f 33//2 35//2 34//2
f 380//3 382//3 381//3
f 379//3 380//3 381//3
f 376//1 378//1 377//1
f 332//1 376//1 377//1
f 36//2 37//2 38//2
f 37//2 39//2 38//2
f 373//1 375//1 374//1
f 372//1 373//1 374//1
f 369//1 371//1 370//1
f 368//1 369//1 370//1
f 40//2 41//2 42//2
f 41//2 43//2 42//2
f 365//1 367//1 366//1
f 364//1 365//1 366//1
f 361//1 363//1 362//1
f 360//1 361//1 362//1
f 44//2 45//2 19//2
f 45//2 46//2 19//2
f 357//3 359//3 358//3
f 356//3 357//3 358//3
f 354//1 12//1 355//1
f 353//1 354//1 355//1
f 47//5 48//5 49//5
f 48//5 50//5 49//5
f 351//1 352//1 292//1
f 317//1 351//1 292//1
f 348//6 350//6 349//6
f 347//6 348//6 349//6
f 51//2 26//2 52//2
f 26//2 22//2 52//2
f 344//6 346//6 345//6
f 343//6 344//6 345//6
f 340//6 342//6 341//6
f 339//6 340//6 341//6
f 53//2 54//2 55//2
f 54//2 56//2 55//2
f 336//6 338//6 337//6
f 335//6 336//6 337//6
f 333//1 334//1 329//1
f 332//1 333//1 329//1
f 57//5 58//5 59//5
f 58//5 60//5 59//5
f 329//1 331//1 330//1
f 328//1 329//1 330//1
f 325//6 327//6 326//6
f 324//6 325//6 326//6
f 61//2 62//2 63//2
f 62//2 64//2 63//2
f 63//2 64//2 65//2
f 310//6 323//6 322//6
f 321//6 310//6 322//6
f 318//1 320//1 319//1
f 317//1 318//1 319//1
f 314//6 316//6 315//6
f 64//2 62//2 66//2
f 62//2 67//2 66//2
f 66//2 67//2 68//2
f 67//2 69//2 68//2
f 68//2 69//2 70//2
f 313//6 314//6 315//6
f 310//6 312//6 311//6
f 309//6 310//6 311//6
f 307//6 309//6 308//6
f 306//6 307//6 308//6
f 71//4 72//4 73//4
f 72//4 74//4 73//4
f 73//4 74//4 75//4
f 303//6 305//6 304//6
f 302//6 303//6 304//6
f 299//6 301//6 300//6
f 298//6 299//6 300//6
f 295//5 286//5 297//5
f 76//6 77//6 78//6
f 77//6 79//6 78//6
f 296//5 295//5 297//5
f 295//5 296//5 280//5
f 282//5 295//5 280//5
f 292//1 294//1 293//1
f 80//2 81//2 82//2
f 81//2 83//2 82//2
f 82//2 83//2 84//2
f 291//1 292//1 293//1
f 289//3 290//3 148//3
f 288//3 289//3 148//3
f 275//5 287//5 285//5
f 284//5 275//5 285//5
f 83//2 81//2 85//2
f 81//2 86//2 85//2
f 85//2 86//2 87//2
f 86//2 88//2 87//2
f 87//2 88//2 89//2
f 283//5 285//5 286//5
f 284//5 285//5 283//5
f 281//5 284//5 283//5
f 281//5 283//5 282//5
f 280//5 281//5 282//5
f 90//2 91//2 92//2
f 91//2 93//2 92//2
f 279//5 281//5 280//5
f 278//5 279//5 280//5
f 275//5 279//5 278//5
f 277//5 275//5 278//5
f 94//2 95//2 96//2
f 95//2 97//2 96//2
f 275//5 277//5 276//5
f 274//5 275//5 276//5
f 271//6 273//6 272//6
f 270//6 271//6 272//6
f 98//3 99//3 100//3
f 99//3 101//3 100//3
f 268//5 260//5 269//5
f 267//5 268//5 269//5
f 262//5 266//5 265//5
f 264//5 262//5 265//5
f 102//3 103//3 104//3
f 103//3 105//3 104//3
f 261//5 263//5 262//5
f 260//5 261//5 262//5
f 258//5 250//5 259//5
f 257//5 258//5 259//5
f 106//3 107//3 108//3
f 107//3 109//3 108//3
f 252//5 256//5 255//5
f 254//5 252//5 255//5
f 251//5 253//5 252//5
f 250//5 251//5 252//5
f 110//3 111//3 112//3
f 111//3 113//3 112//3
f 244//5 60//5 249//5
f 248//5 244//5 249//5
f 236//5 231//5 247//5
f 246//5 236//5 247//5
f 114//3 115//3 116//3
f 115//3 117//3 116//3
f 243//5 245//5 244//5
f 242//5 243//5 244//5
f 239//2 241//2 240//2
f 238//2 239//2 240//2
f 118//3 119//3 115//3
f 119//3 120//3 115//3
f 235//5 237//5 236//5
f 234//5 235//5 236//5
f 232//5 47//5 233//5
f 231//5 232//5 233//5
f 121//3 122//3 123//3
f 122//3 124//3 123//3
f 228//1 230//1 229//1
f 227//1 228//1 229//1
f 225//4 221//4 226//4
f 224//4 225//4 226//4
f 125//3 126//3 127//3
f 126//3 120//3 127//3
f 212//4 223//4 222//4
f 221//4 212//4 222//4
f 216//4 220//4 219//4
f 210//4 216//4 219//4
f 128//3 122//3 129//3
f 122//3 130//3 129//3
f 216//4 218//4 217//4
f 215//4 216//4 217//4
f 212//4 214//4 213//4
f 211//4 212//4 213//4
f 131//3 132//3 133//3
f 132//3 134//3 133//3
f 133//3 134//3 135//3
f 208//4 210//4 209//4
f 207//4 208//4 209//4
f 200//4 206//4 205//4
f 204//4 200//4 205//4
f 200//4 204//4 203//4
f 133//3 135//3 136//3
f 135//3 137//3 136//3
f 136//3 137//3 138//3
f 137//3 139//3 138//3
f 202//4 200//4 203//4
f 202//4 203//4 194//4
f 196//4 202//4 194//4
f 199//4 201//4 200//4
f 140//2 141//2 142//2
f 141//2 143//2 142//2
f 198//4 199//4 200//4
f 197//4 199//4 198//4
f 196//4 197//4 198//4
f 195//4 197//4 196//4
f 144//4 145//4 146//4
f 145//4 147//4 146//4
f 194//4 195//4 196//4
f 190//4 195//4 194//4
f 192//4 190//4 194//4
f 191//4 192//4 193//4
f 134//3 132//3 148//3
f 132//3 149//3 148//3
f 190//4 192//4 191//4
f 189//4 190//4 191//4
f 186//4 188//4 187//4
f 185//4 186//4 187//4
f 150//3 151//3 152//3
f 151//3 153//3 152//3
f 182//6 184//6 183//6
f 181//6 182//6 183//6
f 178//1 180//1 179//1
f 177//1 178//1 179//1
f 154//3 155//3 156//3
f 155//3 157//3 156//3
f 174//4 176//4 175//4
f 173//4 174//4 175//4
f 165//4 172//4 171//4
f 144//4 165//4 171//4
f 158//3 159//3 138//3
f 159//3 131//3 138//3
f 168//1 170//1 169//1
f 167//1 168//1 169//1
f 165//4 166//4 74//4
f 164//4 165//4 74//4
f 160//6 161//6 162//6
f 161//6 163//6 162//6
