# Blender 5.0.1
# www.blender.org
mtllib Enemy4.mtl
o model_10
v -4.000000 -3.487804 0.500000
v -4.000000 -2.487804 0.500000
v -4.000000 -3.487804 -0.500000
v -4.000000 -2.487804 -0.500000
v -4.000000 1.512196 -0.500000
v -4.000000 0.512196 -0.500000
v -4.000000 1.512196 0.500000
v -4.000000 0.512196 0.500000
v -4.000000 -0.487805 -1.500000
v -4.000000 0.512196 1.500000
v -1.000000 -1.487805 -1.500000
v -1.000000 -2.487804 -1.500000
v -1.000000 -1.487804 1.500000
v -1.000000 -2.487804 -0.500000
v -1.000000 -2.487804 0.500000
v -1.000000 -2.487804 -0.500000
v -2.000000 -2.487804 -0.500000
v -1.000000 -2.487804 0.500000
v -2.000000 -2.487804 0.500000
v 1.000000 4.512196 -0.500000
v -1.000000 4.512196 -0.500000
v 1.000000 4.512196 0.500000
v -1.000000 4.512196 0.500000
v 1.000000 3.512196 -1.500000
v -1.000000 3.512196 -1.500000
v 1.000000 3.512196 -0.500000
v -1.000000 3.512196 -0.500000
v -2.000000 3.512196 0.500000
v -1.000000 3.512196 0.500000
v -2.000000 3.512196 -0.500000
v 2.000000 -2.487804 -0.500000
v 1.000000 -2.487804 -0.500000
v 2.000000 -2.487804 0.500000
v 1.000000 -2.487804 0.500000
v -2.000000 2.512196 -0.500000
v -1.000000 2.512196 -0.500000
v -2.000000 2.512196 -1.500000
v -1.000000 2.512196 -1.500000
v 3.000000 2.512196 -0.500000
v 2.000000 2.512196 -0.500000
v 3.000000 2.512196 0.500000
v 2.000000 2.512196 0.500000
v -3.000000 2.512196 0.500000
v -2.000000 2.512196 0.500000
v -3.000000 2.512196 -0.500000
v 1.000000 2.512196 0.500000
v 2.000000 2.512196 1.500000
v 1.000000 2.512196 1.500000
v -2.000000 2.512196 1.500000
v -1.000000 2.512196 1.500000
v -1.000000 2.512196 0.500000
v 3.000000 1.512195 -1.500000
v 2.000000 1.512195 -1.500000
v 3.000000 1.512196 -0.500000
v 2.000000 1.512196 -0.500000
v -3.000000 1.512196 -0.500000
v -2.000000 1.512196 -0.500000
v -3.000000 1.512195 -1.500000
v -2.000000 1.512195 -1.500000
v 4.000000 1.512196 -0.500000
v 4.000000 1.512196 0.500000
v 3.000000 1.512196 0.500000
v -4.000000 1.512196 0.500000
v -3.000000 1.512196 0.500000
v -4.000000 1.512196 -0.500000
v 2.000000 1.512196 0.500000
v 3.000000 1.512196 1.500000
v 2.000000 1.512196 1.500000
v -3.000000 1.512196 1.500000
v -2.000000 1.512196 1.500000
v -2.000000 1.512196 0.500000
v 4.000000 0.512195 -1.500000
v 3.000000 0.512195 -1.500000
v 4.000000 0.512196 -0.500000
v 3.000000 0.512196 -0.500000
v 1.000000 0.512196 1.500000
v 2.000000 0.512196 1.500000
v 1.000000 0.512195 -1.500000
v 2.000000 0.512195 -1.500000
v -1.000000 0.512195 -1.500000
v -2.000000 0.512195 -1.500000
v -1.000000 0.512196 1.500000
v -2.000000 0.512196 1.500000
v -4.000000 0.512196 -0.500000
v -3.000000 0.512196 -0.500000
v -4.000000 0.512195 -1.500000
v -3.000000 0.512195 -1.500000
v 4.000000 0.512196 0.500000
v 3.000000 0.512196 0.500000
v 4.000000 0.512196 1.500000
v 3.000000 0.512196 1.500000
v -4.000000 0.512196 1.500000
v -3.000000 0.512196 1.500000
v -4.000000 0.512196 0.500000
v -3.000000 0.512196 0.500000
v 1.000000 -1.487805 -1.500000
v -1.000000 -1.487805 -1.500000
v 1.000000 -1.487804 1.500000
v -1.000000 -1.487804 1.500000
v 2.000000 -1.487804 0.500000
v 3.000000 -1.487804 0.500000
v 2.000000 -1.487804 -0.500000
v 3.000000 -1.487804 -0.500000
v -3.000000 -1.487804 0.500000
v -2.000000 -1.487804 0.500000
v -3.000000 -1.487804 -0.500000
v -2.000000 -1.487804 -0.500000
v 4.000000 -2.487804 -0.500000
v 3.000000 -2.487804 -0.500000
v 4.000000 -2.487804 0.500000
v 3.000000 -2.487804 0.500000
v -3.000000 -2.487804 -0.500000
v -4.000000 -2.487804 -0.500000
v -3.000000 -2.487804 0.500000
v -4.000000 -2.487804 0.500000
v -1.000000 0.512196 1.500000
v -1.000000 1.512196 1.500000
v -1.000000 0.512195 -1.500000
v -1.000000 1.512195 -1.500000
v 1.000000 1.512195 -1.500000
v 1.000000 1.512196 1.500000
v 1.000000 0.512195 -1.500000
v 1.000000 0.512196 1.500000
v 4.000000 0.512196 1.500000
v 3.000000 0.512196 1.500000
v 4.000000 -0.487804 1.500000
v 2.000000 -0.487804 1.500000
v 2.000000 0.512196 1.500000
v 1.000000 0.512196 1.500000
v 2.000000 -1.487804 1.500000
v 1.000000 -0.487804 1.500000
v 1.000000 -1.487804 1.500000
v 2.000000 1.512196 1.500000
v 3.000000 1.512196 1.500000
v 2.000000 -0.487804 1.500000
v 2.000000 -0.487805 -1.500000
v 4.000000 -0.487804 1.500000
v 4.000000 -0.487805 -1.500000
v -1.000000 -0.487804 1.500000
v -1.000000 -0.487805 -1.500000
v 1.000000 -0.487804 1.500000
v 1.000000 -0.487805 -1.500000
v -4.000000 -0.487804 1.500000
v -4.000000 -0.487805 -1.500000
v -2.000000 -0.487804 1.500000
v -2.000000 -0.487805 -1.500000
v -2.000000 -1.487804 1.500000
v -2.000000 -1.487804 0.500000
v -1.000000 -1.487804 1.500000
v -2.000000 -1.487804 -0.500000
v -2.000000 -1.487805 -1.500000
v -2.000000 -3.487804 0.500000
v -2.000000 -2.487804 0.500000
v -2.000000 -3.487804 -0.500000
v -2.000000 -2.487804 -0.500000
v 1.000000 3.512196 0.500000
v 1.000000 3.512196 1.500000
v 1.000000 2.512196 0.500000
v 1.000000 2.512196 1.500000
v -3.000000 1.512196 0.500000
v -4.000000 1.512196 0.500000
v -3.000000 0.512196 0.500000
v -4.000000 0.512196 0.500000
v -3.000000 -2.487804 0.500000
v -2.000000 -2.487804 0.500000
v -3.000000 -1.487804 0.500000
v -2.000000 -1.487804 0.500000
v 1.000000 2.512196 -0.500000
v 1.000000 2.512196 -1.500000
v 1.000000 3.512196 -0.500000
v 1.000000 3.512196 -1.500000
v -3.000000 -2.487804 0.500000
v -3.000000 -2.487804 -0.500000
v -2.000000 -2.487804 0.500000
v -2.000000 -2.487804 -0.500000
v -1.000000 -3.487804 -0.500000
v -1.000000 -3.487804 0.500000
v -2.000000 -3.487804 -0.500000
v -2.000000 -3.487804 0.500000
v -4.000000 -3.487804 0.500000
v -4.000000 -3.487804 -0.500000
v -3.000000 -3.487804 0.500000
v -3.000000 -3.487804 -0.500000
v -1.000000 2.512196 1.500000
v -1.000000 3.512196 1.500000
v -1.000000 2.512196 0.500000
v -1.000000 3.512196 0.500000
v -2.000000 2.512196 0.500000
v -3.000000 2.512196 0.500000
v -2.000000 1.512196 0.500000
v 1.000000 4.512196 0.500000
v 1.000000 4.512196 -0.500000
v -1.000000 -2.487804 0.500000
v -1.000000 -3.487804 0.500000
v -2.000000 -3.487804 0.500000
v 2.000000 2.512196 -1.500000
v 2.000000 1.512195 -1.500000
v 1.000000 2.512196 -1.500000
v 1.000000 1.512195 -1.500000
v -1.000000 3.512196 -1.500000
v 1.000000 0.512195 -1.500000
v 1.000000 -0.487805 -1.500000
v 2.000000 -1.487805 -1.500000
v 1.000000 -1.487805 -1.500000
v 2.000000 -0.487805 -1.500000
v 2.000000 0.512195 -1.500000
v 3.000000 0.512195 -1.500000
v 3.000000 1.512195 -1.500000
v 4.000000 -0.487805 -1.500000
v 4.000000 0.512195 -1.500000
v -1.000000 -2.487804 1.500000
v -1.000000 -2.487804 0.500000
v 1.000000 -2.487804 1.500000
v 1.000000 -2.487804 0.500000
v -1.000000 -2.487804 -0.500000
v 1.000000 -2.487804 -0.500000
v -1.000000 -2.487804 -1.500000
v 1.000000 -2.487804 -1.500000
v 1.000000 -2.487804 -1.500000
v -1.000000 -1.487805 -1.500000
v -1.000000 -2.487804 -1.500000
v -2.000000 -1.487805 -1.500000
v -2.000000 -0.487805 -1.500000
v -2.000000 0.512195 -1.500000
v -1.000000 -0.487805 -1.500000
v -1.000000 0.512195 -1.500000
v -1.000000 1.512195 -1.500000
v -1.000000 2.512196 -1.500000
v -2.000000 2.512196 -1.500000
v -3.000000 1.512195 -1.500000
v -2.000000 1.512195 -1.500000
v -3.000000 0.512195 -1.500000
v -4.000000 -0.487805 -1.500000
v -4.000000 0.512195 -1.500000
v 3.000000 2.512196 -0.500000
v 3.000000 1.512196 -0.500000
v 2.000000 2.512196 -0.500000
v 2.000000 1.512196 -0.500000
v 3.000000 -1.487804 -0.500000
v 3.000000 -2.487804 -0.500000
v 2.000000 -1.487804 -0.500000
v 2.000000 -2.487804 -0.500000
v 1.000000 4.512196 -0.500000
v 1.000000 3.512196 -0.500000
v -1.000000 4.512196 -0.500000
v -1.000000 3.512196 -0.500000
v -2.000000 -1.487804 -0.500000
v -2.000000 -2.487804 -0.500000
v -3.000000 -1.487804 -0.500000
v -3.000000 -2.487804 -0.500000
v -4.000000 -3.487804 -0.500000
v -4.000000 -2.487804 -0.500000
v -3.000000 -3.487804 -0.500000
v 4.000000 1.512196 0.500000
v 3.000000 1.512196 0.500000
v 4.000000 0.512196 0.500000
v 3.000000 0.512196 0.500000
v 4.000000 -2.487804 0.500000
v 3.000000 -2.487804 0.500000
v 4.000000 -3.487804 0.500000
v 3.000000 -3.487804 0.500000
v 2.000000 3.512196 -0.500000
v 2.000000 3.512196 0.500000
v 1.000000 3.512196 0.500000
v 2.000000 -2.487804 0.500000
v 2.000000 -1.487804 0.500000
v 3.000000 -1.487804 0.500000
v 2.000000 3.512196 0.500000
v 1.000000 3.512196 0.500000
v 2.000000 2.512196 0.500000
v 1.000000 2.512196 0.500000
v 1.000000 -3.487804 0.500000
v 2.000000 -3.487804 0.500000
v 1.000000 -2.487804 0.500000
v -1.000000 2.512196 -0.500000
v -2.000000 3.512196 -0.500000
v -2.000000 2.512196 -0.500000
v -4.000000 0.512196 -0.500000
v -4.000000 1.512196 -0.500000
v -3.000000 0.512196 -0.500000
v -3.000000 1.512196 -0.500000
v 1.000000 2.512196 -0.500000
v 2.000000 3.512196 -0.500000
v -2.000000 1.512196 -0.500000
v -3.000000 2.512196 -0.500000
v 3.000000 -3.487804 -0.500000
v 4.000000 -3.487804 -0.500000
v 4.000000 -2.487804 -0.500000
v 3.000000 0.512196 -0.500000
v 4.000000 0.512196 -0.500000
v 4.000000 1.512196 -0.500000
v 2.000000 -3.487804 0.500000
v 2.000000 -3.487804 -0.500000
v 2.000000 -2.487804 0.500000
v 2.000000 -2.487804 -0.500000
v -3.000000 -2.487804 0.500000
v -3.000000 -1.487804 0.500000
v -3.000000 -2.487804 -0.500000
v -3.000000 -1.487804 -0.500000
v -1.000000 2.512196 -0.500000
v -1.000000 3.512196 -0.500000
v -1.000000 2.512196 -1.500000
v -1.000000 3.512196 -1.500000
v 2.000000 -1.487804 1.500000
v 2.000000 -1.487804 0.500000
v 2.000000 -0.487804 1.500000
v 2.000000 -1.487804 -0.500000
v 2.000000 -1.487805 -1.500000
v 2.000000 1.512195 -1.500000
v 2.000000 1.512196 1.500000
v 1.000000 1.512195 -1.500000
v 1.000000 1.512196 1.500000
v -1.000000 1.512195 -1.500000
v -1.000000 1.512196 1.500000
v -2.000000 1.512195 -1.500000
v -2.000000 1.512196 1.500000
v 1.000000 3.512196 1.500000
v -1.000000 3.512196 1.500000
v 1.000000 2.512196 1.500000
v 1.000000 1.512196 1.500000
v -1.000000 2.512196 1.500000
v -1.000000 1.512196 1.500000
v -1.000000 0.512196 1.500000
v -1.000000 -0.487804 1.500000
v -2.000000 0.512196 1.500000
v -1.000000 -1.487804 1.500000
v -2.000000 -0.487804 1.500000
v -2.000000 -1.487804 1.500000
v -3.000000 1.512196 1.500000
v -3.000000 0.512196 1.500000
v -4.000000 -0.487804 1.500000
v -4.000000 0.512196 1.500000
v -1.000000 -2.487804 -0.500000
v -1.000000 -2.487804 0.500000
v -1.000000 -3.487804 -0.500000
v -1.000000 -3.487804 0.500000
v 2.000000 -3.487804 -0.500000
v 2.000000 -3.487804 0.500000
v 1.000000 -3.487804 -0.500000
v 1.000000 -3.487804 0.500000
v 4.000000 -0.487804 1.500000
v 4.000000 -0.487805 -1.500000
v 4.000000 0.512196 1.500000
v 4.000000 0.512196 0.500000
v 4.000000 0.512196 -0.500000
v 4.000000 0.512195 -1.500000
v 4.000000 1.512196 0.500000
v 4.000000 1.512196 -0.500000
v 4.000000 -2.487804 -0.500000
v 4.000000 -2.487804 0.500000
v 4.000000 -3.487804 -0.500000
v 4.000000 -3.487804 0.500000
v 3.000000 1.512195 -1.500000
v 3.000000 1.512196 -0.500000
v 3.000000 0.512195 -1.500000
v 3.000000 0.512196 -0.500000
v 3.000000 0.512196 1.500000
v 3.000000 0.512196 0.500000
v 3.000000 1.512196 1.500000
v 3.000000 1.512196 0.500000
v 3.000000 -2.487804 0.500000
v 3.000000 -2.487804 -0.500000
v 3.000000 -1.487804 0.500000
v 3.000000 -1.487804 -0.500000
v -1.000000 -2.487804 -0.500000
v -1.000000 -3.487804 -0.500000
v -2.000000 -3.487804 -0.500000
v 2.000000 1.512196 -0.500000
v 2.000000 1.512195 -1.500000
v 2.000000 2.512196 -0.500000
v 2.000000 2.512196 -1.500000
v -1.000000 4.512196 0.500000
v -1.000000 4.512196 -0.500000
v 3.000000 2.512196 0.500000
v 2.000000 1.512196 0.500000
v -1.000000 -2.487804 1.500000
v 1.000000 -2.487804 1.500000
v 2.000000 -2.487804 0.500000
v 2.000000 -2.487804 -0.500000
v 3.000000 -2.487804 0.500000
v 3.000000 -2.487804 -0.500000
v 2.000000 -3.487804 -0.500000
v 1.000000 -2.487804 -0.500000
v 1.000000 -3.487804 -0.500000
v 2.000000 2.512196 0.500000
v 2.000000 2.512196 1.500000
v 2.000000 1.512196 0.500000
v 2.000000 1.512196 1.500000
v -2.000000 -1.487804 -0.500000
v -2.000000 -1.487804 0.500000
v -2.000000 -2.487804 -0.500000
v -2.000000 -2.487804 0.500000
v -3.000000 1.512196 0.500000
v -3.000000 2.512196 0.500000
v -3.000000 1.512196 -0.500000
v -3.000000 2.512196 -0.500000
v 1.000000 2.512196 -0.500000
v 1.000000 2.512196 -1.500000
v 2.000000 2.512196 -1.500000
v -2.000000 3.512196 -0.500000
v -2.000000 2.512196 -0.500000
v -2.000000 3.512196 0.500000
v -2.000000 2.512196 0.500000
v -2.000000 1.512195 -1.500000
v -2.000000 1.512196 1.500000
v -2.000000 0.512195 -1.500000
v -2.000000 0.512196 1.500000
v -3.000000 0.512196 -0.500000
v -3.000000 0.512195 -1.500000
v -3.000000 1.512195 -1.500000
v -3.000000 -2.487804 -0.500000
v -3.000000 -2.487804 0.500000
v -3.000000 -3.487804 -0.500000
v -3.000000 -3.487804 0.500000
v 3.000000 -2.487804 -0.500000
v 3.000000 -3.487804 -0.500000
v 3.000000 -2.487804 0.500000
v 3.000000 -3.487804 0.500000
v 2.000000 1.512195 -1.500000
v 2.000000 0.512195 -1.500000
v 2.000000 1.512196 1.500000
v 2.000000 0.512196 1.500000
v 2.000000 -1.487804 -0.500000
v 2.000000 -2.487804 -0.500000
v 2.000000 -1.487804 0.500000
v 2.000000 -2.487804 0.500000
v 1.000000 -0.487805 -1.500000
v 1.000000 -1.487805 -1.500000
v 1.000000 -0.487804 1.500000
v 1.000000 -1.487804 1.500000
v 2.000000 3.512196 -0.500000
v 2.000000 3.512196 0.500000
v 1.000000 -3.487804 0.500000
v 1.000000 -2.487804 0.500000
v 1.000000 -3.487804 -0.500000
v 1.000000 -2.487804 -0.500000
v -2.000000 -1.487804 1.500000
v -2.000000 -0.487804 1.500000
v -2.000000 -1.487804 0.500000
v -2.000000 -1.487804 -0.500000
v -2.000000 -1.487805 -1.500000
v -2.000000 -0.487805 -1.500000
v 3.000000 2.512196 -0.500000
v 3.000000 2.512196 0.500000
v -2.000000 1.512196 1.500000
v -2.000000 2.512196 1.500000
v -2.000000 1.512196 -0.500000
v -2.000000 1.512195 -1.500000
v -2.000000 2.512196 -1.500000
v -4.000000 -3.487804 0.500000
v -3.000000 -3.487804 0.500000
v -4.000000 -2.487804 0.500000
v 1.000000 -1.487805 -1.500000
v 1.000000 -1.487804 1.500000
v 1.000000 -2.487804 -1.500000
v 1.000000 -2.487804 -0.500000
v 1.000000 -2.487804 0.500000
v 1.000000 -2.487804 1.500000
v -2.000000 1.512196 0.500000
v -2.000000 2.512196 1.500000
v -2.000000 1.512196 1.500000
v 2.000000 -1.487804 1.500000
v 1.000000 -1.487804 1.500000
v 2.000000 -1.487804 0.500000
v 2.000000 -1.487804 -0.500000
v 1.000000 -1.487805 -1.500000
v 2.000000 -1.487805 -1.500000
v -3.000000 0.512196 1.500000
v -3.000000 1.512196 1.500000
v -3.000000 0.512196 0.500000
v -1.000000 3.512196 0.500000
v -1.000000 4.512196 0.500000
v 1.000000 4.512196 0.500000
v -1.000000 -1.487804 1.500000
v -1.000000 -1.487805 -1.500000
v -1.000000 -0.487804 1.500000
v -1.000000 -0.487805 -1.500000
v 3.000000 -3.487804 0.500000
v 3.000000 -3.487804 -0.500000
v 4.000000 -3.487804 0.500000
v 4.000000 -3.487804 -0.500000
v -1.000000 3.512196 1.500000
v 1.000000 3.512196 1.500000
v -2.000000 3.512196 0.500000
v -1.000000 2.512196 0.500000
v -4.000000 -0.487804 1.500000
v -4.000000 0.512195 -1.500000
v -1.000000 -2.487804 1.500000
v 2.000000 -0.487805 -1.500000
v 2.000000 2.512196 1.500000
v 1.000000 3.512196 -1.500000
v -1.000000 -1.487805 -1.500000
vn -1.0000 -0.0000 0.0022
vn -0.0000 -1.0000 0.0022
vn -0.0000 -0.0000 -1.0000
vn -0.0000 -0.0000 1.0000
vn 1.0000 -0.0000 0.0022
vn -0.0000 1.0000 0.0022
s 1
f 1//1 2//1 3//1
f 2//1 4//1 3//1
f 492//2 149//2 151//2
f 198//3 200//3 491//3
f 228//3 200//3 202//3
f 231//3 229//3 227//3
f 5//1 6//1 7//1
f 6//1 8//1 7//1
f 490//4 319//4 133//4
f 445//4 329//4 325//4
f 306//5 308//5 489//5
f 13//1 15//1 488//1
f 6//1 9//1 8//1
f 9//1 10//1 8//1
f 487//1 9//1 6//1
f 10//1 9//1 486//1
f 484//4 188//4 485//4
f 471//4 484//4 485//4
f 11//1 12//1 13//1
f 12//1 14//1 13//1
f 13//1 14//1 15//1
f 483//6 264//6 29//6
f 482//6 483//6 29//6
f 479//2 481//2 480//2
f 478//2 479//2 480//2
f 475//5 477//5 476//5
f 16//6 17//6 18//6
f 17//6 19//6 18//6
f 474//5 475//5 476//5
f 269//4 473//4 472//4
f 471//4 269//4 472//4
f 469//1 393//1 470//1
f 20//6 21//6 22//6
f 21//6 23//6 22//6
f 468//1 469//1 470//1
f 466//2 467//2 465//2
f 463//2 466//2 465//2
f 463//2 465//2 464//2
f 24//6 25//6 26//6
f 25//6 27//6 26//6
f 462//2 463//2 464//2
f 459//1 461//1 460//1
f 403//1 459//1 460//1
f 454//5 458//5 457//5
f 28//6 29//6 30//6
f 29//6 27//6 30//6
f 456//5 454//5 457//5
f 454//5 456//5 455//5
f 453//5 454//5 455//5
f 451//4 164//4 452//4
f 31//6 32//6 33//6
f 32//6 34//6 33//6
f 450//4 451//4 452//4
f 401//1 449//1 448//1
f 447//1 401//1 448//1
f 322//4 321//4 446//4
f 35//6 36//6 37//6
f 36//6 38//6 37//6
f 445//4 322//4 446//4
f 444//5 360//5 354//5
f 443//5 444//5 354//5
f 438//1 442//1 441//1
f 39//6 40//6 41//6
f 40//6 42//6 41//6
f 440//1 438//1 441//1
f 438//1 440//1 439//1
f 437//1 438//1 439//1
f 434//1 436//1 435//1
f 43//6 44//6 45//6
f 44//6 35//6 45//6
f 433//1 434//1 435//1
f 432//5 385//5 370//5
f 431//5 432//5 370//5
f 428//1 430//1 429//1
f 42//6 46//6 47//6
f 46//6 48//6 47//6
f 427//1 428//1 429//1
f 424//1 426//1 425//1
f 423//1 424//1 425//1
f 420//1 422//1 421//1
f 49//6 50//6 44//6
f 50//6 51//6 44//6
f 419//1 420//1 421//1
f 416//1 418//1 417//1
f 415//1 416//1 417//1
f 412//5 414//5 413//5
f 52//6 53//6 54//6
f 53//6 55//6 54//6
f 411//5 412//5 413//5
f 395//1 410//1 409//1
f 408//1 395//1 409//1
f 405//5 407//5 406//5
f 56//6 57//6 58//6
f 57//6 59//6 58//6
f 404//5 405//5 406//5
f 401//1 403//1 402//1
f 400//1 401//1 402//1
f 40//6 399//6 398//6
f 60//6 54//6 61//6
f 54//6 62//6 61//6
f 397//6 40//6 398//6
f 394//1 396//1 395//1
f 393//1 394//1 395//1
f 390//5 392//5 391//5
f 63//6 64//6 65//6
f 64//6 56//6 65//6
f 389//5 390//5 391//5
f 386//5 388//5 387//5
f 385//5 386//5 387//5
f 382//3 384//3 383//3
f 62//6 66//6 67//6
f 66//6 68//6 67//6
f 242//3 382//3 383//3
f 379//2 381//2 380//2
f 378//2 379//2 380//2
f 377//4 132//4 326//4
f 69//6 70//6 64//6
f 70//6 71//6 64//6
f 376//4 377//4 326//4
f 270//4 375//4 255//4
f 374//4 270//4 255//4
f 372//1 373//1 301//1
f 72//6 73//6 74//6
f 73//6 75//6 74//6
f 187//1 372//1 301//1
f 369//5 371//5 370//5
f 368//5 369//5 370//5
f 366//3 367//3 248//3
f 76//6 77//6 78//6
f 77//6 79//6 78//6
f 365//3 366//3 248//3
f 362//5 364//5 363//5
f 361//5 362//5 363//5
f 358//5 360//5 359//5
f 80//6 81//6 82//6
f 81//6 83//6 82//6
f 357//5 358//5 359//5
f 354//5 356//5 355//5
f 353//5 354//5 355//5
f 350//5 352//5 351//5
f 84//6 85//6 86//6
f 85//6 87//6 86//6
f 349//5 350//5 351//5
f 345//5 348//5 347//5
f 344//5 345//5 347//5
f 342//5 346//5 345//5
f 88//6 89//6 90//6
f 89//6 91//6 90//6
f 344//5 342//5 345//5
f 342//5 344//5 343//5
f 341//5 342//5 343//5
f 338//2 340//2 339//2
f 92//6 93//6 94//6
f 93//6 95//6 94//6
f 337//2 338//2 339//2
f 334//5 336//5 335//5
f 333//5 334//5 335//5
f 330//4 332//4 331//4
f 96//6 97//6 98//6
f 97//6 99//6 98//6
f 327//4 330//4 331//4
f 329//4 330//4 327//4
f 325//4 329//4 327//4
f 326//4 327//4 328//4
f 100//6 101//6 102//6
f 101//6 103//6 102//6
f 325//4 327//4 326//4
f 324//4 325//4 326//4
f 323//4 325//4 324//4
f 131//4 323//4 324//4
f 104//6 105//6 106//6
f 105//6 107//6 106//6
f 131//4 322//4 323//4
f 321//4 322//4 131//4
f 318//4 321//4 131//4
f 318//4 131//4 129//4
f 108//6 109//6 110//6
f 109//6 111//6 110//6
f 320//4 318//4 129//4
f 319//4 320//4 133//4
f 318//4 320//4 319//4
f 317//4 318//4 319//4
f 112//6 113//6 114//6
f 113//6 115//6 114//6
f 314//2 316//2 315//2
f 313//2 314//2 315//2
f 310//2 312//2 311//2
f 309//2 310//2 311//2
f 116//1 117//1 118//1
f 117//1 119//1 118//1
f 306//5 307//5 308//5
f 305//5 307//5 306//5
f 304//5 305//5 306//5
f 301//1 303//1 302//1
f 120//5 121//5 122//5
f 121//5 123//5 122//5
f 300//1 301//1 302//1
f 297//1 299//1 298//1
f 296//1 297//1 298//1
f 293//5 295//5 294//5
f 124//4 125//4 126//4
f 125//4 127//4 126//4
f 292//5 293//5 294//5
f 236//3 291//3 290//3
f 289//3 236//3 290//3
f 240//3 288//3 287//3
f 125//4 128//4 127//4
f 128//4 129//4 127//4
f 127//4 129//4 130//4
f 129//4 131//4 130//4
f 130//4 131//4 132//4
f 286//3 240//3 287//3
f 284//3 281//3 285//3
f 277//3 284//3 285//3
f 244//3 283//3 237//3
f 282//3 244//3 237//3
f 128//4 125//4 133//4
f 125//4 134//4 133//4
f 279//3 281//3 280//3
f 278//3 279//3 280//3
f 275//3 277//3 276//3
f 246//3 275//3 276//3
f 135//2 136//2 137//2
f 136//2 138//2 137//2
f 273//4 265//4 274//4
f 272//4 273//4 274//4
f 269//4 271//4 270//4
f 268//4 269//4 270//4
f 139//2 140//2 141//2
f 140//2 142//2 141//2
f 259//4 267//4 266//4
f 265//4 259//4 266//4
f 26//6 264//6 263//6
f 262//6 26//6 263//6
f 143//2 144//2 145//2
f 144//2 146//2 145//2
f 259//4 261//4 260//4
f 258//4 259//4 260//4
f 255//4 257//4 256//4
f 254//4 255//4 256//4
f 147//2 148//2 149//2
f 148//2 150//2 149//2
f 149//2 150//2 151//2
f 252//3 250//3 253//3
f 251//3 252//3 253//3
f 248//3 250//3 249//3
f 247//3 248//3 249//3
f 244//3 246//3 245//3
f 152//1 153//1 154//1
f 153//1 155//1 154//1
f 243//3 244//3 245//3
f 240//3 242//3 241//3
f 239//3 240//3 241//3
f 236//3 238//3 237//3
f 156//5 157//5 158//5
f 157//5 159//5 158//5
f 235//3 236//3 237//3
f 232//3 233//3 234//3
f 223//3 233//3 232//3
f 230//3 223//3 232//3
f 160//4 161//4 162//4
f 161//4 163//4 162//4
f 230//3 231//3 224//3
f 223//3 230//3 224//3
f 227//3 229//3 228//3
f 202//3 227//3 228//3
f 164//4 165//4 166//4
f 165//4 167//4 166//4
f 226//3 227//3 202//3
f 225//3 226//3 202//3
f 224//3 226//3 225//3
f 220//3 224//3 225//3
f 168//5 169//5 170//5
f 169//5 171//5 170//5
f 223//3 224//3 220//3
f 222//3 223//3 220//3
f 219//3 221//3 220//3
f 204//3 219//3 220//3
f 172//2 173//2 174//2
f 173//2 175//2 174//2
f 217//2 218//2 216//2
f 215//2 217//2 216//2
f 215//2 216//2 214//2
f 212//2 215//2 214//2
f 176//2 177//2 178//2
f 177//2 179//2 178//2
f 212//2 214//2 213//2
f 211//2 212//2 213//2
f 207//3 210//3 209//3
f 205//3 207//3 209//3
f 180//2 181//2 182//2
f 181//2 183//2 182//2
f 207//3 197//3 208//3
f 206//3 197//3 207//3
f 205//3 206//3 207//3
f 201//3 206//3 205//3
f 184//1 185//1 186//1
f 185//1 187//1 186//1
f 203//3 201//3 205//3
f 202//3 203//3 204//3
f 201//3 203//3 202//3
f 200//3 201//3 202//3
f 188//4 189//4 190//4
f 189//4 160//4 190//4
f 199//3 201//3 200//3
f 198//3 199//3 200//3
f 197//3 199//3 198//3
f 196//3 197//3 198//3
f 156//5 170//5 191//5
f 170//5 192//5 191//5
f 165//4 195//4 194//4
f 193//4 165//4 194//4
